<svg width="38" height="30" viewBox="0 0 38 30" fill="none" xmlns="http://www.w3.org/2000/svg">
<path d="M31.6615 2.99591C29.2915 1.86997 26.7256 1.05276 24.0527 0.580589C24.0293 0.579825 24.0059 0.584307 23.9844 0.59372C23.9628 0.603133 23.9436 0.617248 23.928 0.63507C23.6072 1.23436 23.233 2.01525 22.9835 2.61454C20.1485 2.1787 17.2653 2.1787 14.4303 2.61454C14.1808 1.99709 13.8066 1.23436 13.4681 0.63507C13.4502 0.59875 13.3968 0.580589 13.3433 0.580589C10.6704 1.05276 8.1223 1.86997 5.73452 2.99591C5.7167 2.99591 5.69888 3.01407 5.68106 3.03223C0.834232 10.4235 -0.50221 17.615 0.157102 24.7338C0.157102 24.7701 0.174921 24.8064 0.210559 24.8246C3.41802 27.2218 6.50075 28.6746 9.54784 29.6371C9.60129 29.6552 9.65475 29.6371 9.67257 29.6008C10.3853 28.6019 11.0268 27.5486 11.5792 26.4409C11.6149 26.3682 11.5792 26.2956 11.5079 26.2774C10.4923 25.8779 9.53002 25.4057 8.5856 24.8609C8.51432 24.8246 8.51432 24.7156 8.56778 24.6612C8.76379 24.5159 8.9598 24.3524 9.15581 24.2071C9.19145 24.1708 9.24491 24.1708 9.28055 24.189C15.4104 27.0402 22.0213 27.0402 28.0798 24.189C28.1155 24.1708 28.1689 24.1708 28.2046 24.2071C28.4006 24.3706 28.5966 24.5159 28.7926 24.6793C28.8639 24.7338 28.8639 24.8428 28.7748 24.8791C27.8482 25.442 26.8681 25.8961 25.8524 26.2956C25.7812 26.3137 25.7633 26.4045 25.7812 26.459C26.3514 27.5668 26.9929 28.6201 27.6878 29.6189C27.7413 29.6371 27.7947 29.6552 27.8482 29.6371C30.9131 28.6746 33.9958 27.2218 37.2033 24.8246C37.2389 24.8064 37.2567 24.7701 37.2567 24.7338C38.0408 16.5072 35.9559 9.37018 31.7328 3.03223C31.715 3.01407 31.6971 2.99591 31.6615 2.99591ZM12.5058 20.3935C10.6704 20.3935 9.13799 18.6683 9.13799 16.5435C9.13799 14.4187 10.6348 12.6935 12.5058 12.6935C14.3947 12.6935 15.8915 14.4369 15.8737 16.5435C15.8737 18.6683 14.3768 20.3935 12.5058 20.3935ZM24.9258 20.3935C23.0904 20.3935 21.558 18.6683 21.558 16.5435C21.558 14.4187 23.0548 12.6935 24.9258 12.6935C26.8147 12.6935 28.3115 14.4369 28.2937 16.5435C28.2937 18.6683 26.8147 20.3935 24.9258 20.3935Z" fill="#B96969"/>
</svg>
