<svg width="38" height="39" viewBox="0 0 38 39" fill="none" xmlns="http://www.w3.org/2000/svg">
<path d="M18.9032 0.813599C16.4462 0.813599 14.0132 1.3068 11.7433 2.26505C9.47331 3.22329 7.41077 4.62782 5.67342 6.39843C2.16467 9.97433 0.193481 14.8243 0.193481 19.8814C0.193481 28.3094 5.56316 35.4598 12.9909 37.9958C13.9264 38.1483 14.2257 37.5572 14.2257 37.0424V33.82C9.04316 34.964 7.93929 31.2649 7.93929 31.2649C7.07864 29.053 5.86251 28.4619 5.86251 28.4619C4.15993 27.2797 5.99348 27.3178 5.99348 27.3178C7.86445 27.4513 8.85606 29.2818 8.85606 29.2818C10.4838 32.1801 13.2341 31.3221 14.3006 30.8644C14.469 29.625 14.9554 28.7861 15.4793 28.3094C11.3257 27.8327 6.96638 26.1928 6.96638 18.928C6.96638 16.8115 7.67735 15.1144 8.89348 13.7606C8.70638 13.2839 8.05155 11.3009 9.08058 8.72673C9.08058 8.72673 10.6522 8.2119 14.2257 10.6716C15.7038 10.2522 17.3128 10.0424 18.9032 10.0424C20.4935 10.0424 22.1025 10.2522 23.5806 10.6716C27.1541 8.2119 28.7257 8.72673 28.7257 8.72673C29.7548 11.3009 29.0999 13.2839 28.9128 13.7606C30.129 15.1144 30.8399 16.8115 30.8399 18.928C30.8399 26.2119 26.4619 27.8136 22.2896 28.2903C22.9632 28.8814 23.5806 30.0445 23.5806 31.8178V37.0424C23.5806 37.5572 23.8799 38.1674 24.8341 37.9958C32.2619 35.4407 37.6128 28.3094 37.6128 19.8814C37.6128 17.3774 37.1289 14.8979 36.1886 12.5845C35.2484 10.2711 33.8703 8.16904 32.1329 6.39843C30.3955 4.62782 28.333 3.22329 26.063 2.26505C23.7931 1.3068 21.3601 0.813599 18.9032 0.813599Z" fill="#B96969"/>
</svg>
