<svg width="38" height="40" viewBox="0 0 38 40" fill="none" xmlns="http://www.w3.org/2000/svg">
<path d="M19.2904 0.906799C8.95717 0.906799 0.580688 9.44361 0.580688 19.9746C0.580688 30.5056 8.95717 39.0424 19.2904 39.0424C29.6236 39.0424 38 30.5056 38 19.9746C38 9.44361 29.6236 0.906799 19.2904 0.906799ZM14.7104 27.8778H10.9217V15.452H14.7104V27.8778ZM12.7926 13.9265C11.596 13.9265 10.8223 13.0625 10.8223 11.9939C10.8223 10.9035 11.6194 10.0653 12.8414 10.0653C14.0633 10.0653 14.8117 10.9035 14.8351 11.9939C14.8351 13.0625 14.0633 13.9265 12.7926 13.9265ZM28.5478 27.8778H24.759V20.9915C24.759 19.3887 24.2094 18.3002 22.8394 18.3002C21.7928 18.3002 21.1711 19.0371 20.8963 19.7462C20.7949 19.9984 20.7696 20.356 20.7696 20.7115V27.8758H16.9789V19.4145C16.9789 17.8632 16.9302 16.5662 16.8795 15.45H20.1713L20.3447 17.176H20.4207C20.9197 16.3656 22.1416 15.1699 24.1861 15.1699C26.6787 15.1699 28.5478 16.8721 28.5478 20.5307V27.8778Z" fill="#B96969"/>
</svg>
