<svg width="821" height="822" viewBox="0 0 821 822" fill="none" xmlns="http://www.w3.org/2000/svg">
<circle cx="409.097" cy="412.306" r="409.097" fill="#F4D7CA"/>
<path fill-rule="evenodd" clip-rule="evenodd" d="M597.589 494.609C595.098 512.206 585.927 527.854 572.562 538.672C592.913 530.234 608.143 512.439 613.319 491.001C610.296 492.229 607.063 493.189 603.665 493.831C601.622 494.217 599.592 494.474 597.589 494.609Z" fill="#B96969"/>
<path fill-rule="evenodd" clip-rule="evenodd" d="M624.823 531.297C608.823 526.443 591.606 528.408 576.685 536.109C592.588 521.139 614.229 514.57 634.642 518.549C632.302 520.783 630.098 523.315 628.094 526.124C626.889 527.813 625.798 529.543 624.823 531.297Z" fill="#B96969"/>
<path fill-rule="evenodd" clip-rule="evenodd" d="M597.189 494.373C597.1 495.997 596.957 497.606 596.761 499.199C603.292 503.338 609.236 508.651 614.265 515.097C628.759 533.675 632.275 557.328 625.779 578.245C641.892 554.105 641.591 521.401 622.76 497.266C620.366 494.197 617.764 491.385 614.991 488.834C610.727 491.123 605.917 492.849 600.72 493.831C599.538 494.054 598.36 494.234 597.189 494.373Z" fill="#B96969"/>
<path fill-rule="evenodd" clip-rule="evenodd" d="M579.661 487.872C577.356 489.283 574.652 490.39 571.678 491.052C569.342 491.572 567.04 491.772 564.858 491.689C562.818 502.683 558.134 511.77 550.715 517.728C543.831 523.255 535.361 525.471 526.122 524.754C525.971 526.343 525.787 527.915 525.57 529.468C540.222 534.742 554.06 533.882 564.352 525.617C574.269 517.654 579.299 504.098 579.661 487.872Z" fill="#B96969"/>
<path fill-rule="evenodd" clip-rule="evenodd" d="M579.316 577.853C573.64 576.513 567.759 576.076 561.886 576.524C560.027 564.895 556.051 555.172 549.834 548.255C542.887 540.527 533.896 537.141 523.747 537.629C523.726 535.312 523.66 533.019 523.551 530.753C540.375 524.156 555.59 525.899 566.113 537.606C574.362 546.784 578.664 560.901 579.316 577.853Z" fill="#B96969"/>
<path fill-rule="evenodd" clip-rule="evenodd" d="M489.007 460.545C507.34 474.585 519.923 494.154 522.821 516.541C525.917 540.461 517.375 563.094 501.042 580.399C526.814 562.452 541.683 534.125 537.747 503.721C534.783 480.82 521.684 460.869 502.664 446.768C498.609 451.598 494.039 456.204 489.007 460.545Z" fill="#B96969"/>
<path fill-rule="evenodd" clip-rule="evenodd" d="M465.6 578.797C480.878 581.085 496.29 562.732 500.023 537.804C503.756 512.876 494.396 490.813 479.118 488.526C463.84 486.238 448.428 504.591 444.695 529.519C440.962 554.447 450.322 576.509 465.6 578.797ZM475.654 550.484C482.891 551.568 490.612 540.061 492.9 524.782C495.188 509.504 491.176 496.24 483.939 495.156C476.702 494.072 468.98 505.579 466.692 520.858C464.405 536.136 468.417 549.4 475.654 550.484Z" fill="#B96969"/>
<path fill-rule="evenodd" clip-rule="evenodd" d="M464.6 476.588C457.57 481.773 450.474 485.779 443.932 488.422C445.993 501.837 446.329 515.822 444.712 530.07C437.5 593.607 393.618 643.349 338.738 657.219C403.442 649.311 457.432 594.047 465.659 521.567C467.408 506.16 466.967 491.048 464.6 476.588Z" fill="#B96969"/>
<path fill-rule="evenodd" clip-rule="evenodd" d="M395.705 489.34C405.214 496.517 411.596 514.384 410.973 535.082C410.349 555.841 402.862 573.334 392.894 579.881C405.661 578.991 419.161 561.512 424.399 537.969C428.939 517.557 425.923 498.64 417.75 489.916C414.552 490.721 411.204 491.149 407.756 491.149C403.561 491.149 399.514 490.516 395.705 489.34Z" fill="#B96969"/>
<circle cx="406.245" cy="473.019" r="9.06497" fill="#B96969"/>
<path d="M282.237 453.665H323.46H349.96L369.099 450.721L386.766 446.304L398.543 443.36L410.321 438.943L422.099 434.526L432.405 428.637L429.46 435.999L425.044 440.415L411.794 447.776L395.599 455.138L376.46 461.026L349.96 465.443L323.46 468.388L298.432 465.443L282.237 453.665Z" fill="#B96969"/>
<path fill-rule="evenodd" clip-rule="evenodd" d="M371.674 498.864C372.515 499.15 373.135 499.304 373.516 499.304C392.655 499.304 366.987 476.492 330.317 469.935C323.083 468.642 315.461 465.064 308.082 461.599C293.447 454.728 279.761 448.303 271.932 461.026C272.331 461.825 272.622 462.571 272.897 463.274C274.406 467.142 275.416 469.73 291.174 472.777C304.16 470.14 319.331 470.955 334.556 475.879C349.818 480.815 362.646 489.076 371.674 498.864Z" fill="#B96969"/>
<path fill-rule="evenodd" clip-rule="evenodd" d="M366.155 578.805C381.603 578.805 394.127 558.372 394.127 533.166C394.127 507.96 381.603 487.527 366.155 487.527C350.706 487.527 338.182 507.96 338.182 533.166C338.182 558.372 350.706 578.805 366.155 578.805ZM372.044 555.249C379.362 555.249 385.294 542.726 385.294 527.277C385.294 511.828 379.362 499.304 372.044 499.304C364.726 499.304 358.794 511.828 358.794 527.277C358.794 542.726 364.726 555.249 372.044 555.249Z" fill="#B96969"/>
<path fill-rule="evenodd" clip-rule="evenodd" d="M305.359 498.175C287.334 508.643 280.894 528.011 287.922 547.114C287.584 531.502 296.343 517.311 313.094 509.904C316.471 508.411 320.015 507.263 323.669 506.447C324.539 503.78 325.554 501.184 326.703 498.67C324.546 497.3 322.554 495.832 320.742 494.294C315.792 496.022 310.651 497.329 305.359 498.175Z" fill="#B96969"/>
<path fill-rule="evenodd" clip-rule="evenodd" d="M262.439 494.65C260.321 495.51 258.078 496.252 255.728 496.854C255.372 496.945 255.015 497.032 254.66 497.116C254.866 498.758 254.998 500.425 255.051 502.112C260.123 504.44 264.844 507.438 269.026 511.107C282.968 523.336 287.675 540.154 283.449 555.828C295.717 537.22 293.376 513.89 275.786 498.01C271.213 497.226 266.754 496.097 262.439 494.65Z" fill="#B96969"/>
<path fill-rule="evenodd" clip-rule="evenodd" d="M305.688 498.122C305.521 498.79 305.362 499.462 305.212 500.139C298.129 532.134 312.687 564.284 339.084 580.759C323.363 563.167 315.994 538.449 321.446 513.822C323.338 505.277 326.62 497.435 330.998 490.481C330.92 490.354 330.841 490.227 330.763 490.099C322.959 493.935 314.536 496.674 305.688 498.122Z" fill="#B96969"/>
<path fill-rule="evenodd" clip-rule="evenodd" d="M254.06 491.363C255.159 499.472 255.078 507.906 253.663 516.455C248.961 544.856 230.641 567.902 206.508 579.846C241.474 573.626 270.569 545.768 276.677 508.868C277.159 505.954 277.487 503.053 277.665 500.174C277.059 499.438 276.436 498.717 275.795 498.011C268.19 496.709 260.903 494.451 254.06 491.363Z" fill="#B96969"/>
<path fill-rule="evenodd" clip-rule="evenodd" d="M180.419 578.285C225.406 561.842 241.268 515.614 240.033 464.098C239.624 447.064 243.432 429.258 246.508 414.874L246.508 414.874C249.063 402.932 251.112 393.349 249.826 388.523C240.223 400.072 227.326 408.457 212.698 412.019C209.127 424.721 212.387 442.592 214.823 455.947C215.25 458.287 215.652 460.488 215.987 462.499C216.741 472.102 217.25 479.808 217.101 486.603C220.067 522.272 205.611 555.871 180.419 578.285Z" fill="#B96969"/>
<path d="M240.686 363.809C244.325 370.158 243.959 381.526 226.293 388.887C213.043 400.665 207.442 391.298 203.803 384.949C200.164 378.6 205.471 368.721 215.656 362.883C225.84 357.046 237.047 357.461 240.686 363.809Z" fill="#B96969"/>
<path d="M433.292 334.24L433.679 332.305H435.227L434.84 334.24L434.453 336.176L433.292 340.047L432.518 343.918L432.131 347.278L431.937 350.326V353.596L432.131 357.467L432.324 360.03L432.905 363.274L433.292 365.21L434.84 369.081L436.195 371.659L436.969 372.952L437.744 374.305L439.292 376.016L440.26 376.631L439.486 374.145L439.292 371.659V369.081L439.679 365.21L440.26 361.339L440.795 358.8L441.421 355.532L442.196 352.598L442.97 349.725L443.938 346.289L444.905 343.918L446.841 340.047L448.777 336.176L450.712 332.305H452.648L450.712 336.176L448.777 340.047L446.841 343.918L445.292 347.789L443.938 351.661L442.97 355.532L442.196 359.403L441.421 363.274L440.879 367.145L440.795 368.83V371.43L441.034 374.888L441.808 376.823L442.97 378.759L445.292 381.232V380.858V378.759V376.823L445.486 374.888L446.34 371.43L446.841 369.081L448.002 365.685L449.551 361.339L451.099 357.467L452.648 353.596L454.777 349.725L455.745 347.789L458.067 343.918L460.39 340.047L462.326 336.176L464.261 332.305H466.584L464.648 336.176L462.326 340.047L458.842 345.854L456.519 349.725L454.583 353.596L452.648 357.467L451.099 361.339L449.164 367.145L448.002 371.016L446.841 374.888L446.34 377.985V379.753V381.469L446.841 382.63L447.719 383.404L449.205 384.178H449.938L450.712 383.404L451.486 382.63L453.331 381.063L454.719 379.753L457.68 376.823L459.616 374.888L461.164 372.952L462.713 371.016L464.261 369.081L465.81 367.145L468.132 364.479L470.455 361.339L472.004 359.403L473.281 357.467L474.713 355.532L476.881 352.481L478.778 349.725L480.133 347.789L480.907 346.523L482.456 343.918L483.617 341.983L484.004 341.056L485.553 338.112L487.101 334.24L488.456 330.369H490.198L489.424 332.305L486.908 338.112L484.004 343.918L480.52 349.725L476.804 355.532L473.939 359.403L470.842 363.274L467.745 367.145L466.197 369.081L464.842 371.016L461.745 374.888L460.003 376.823L458.067 378.759L456.132 380.694L453.809 382.63L451.486 384.566L453.331 385.572H454.719L458.454 384.566L461.362 383.404L462.326 382.63L464.261 381.469L468.132 378.759L470.842 376.823L473.288 374.501L475.629 372.371L478.585 369.081L480.133 367.145L481.681 365.21L484.391 361.339L486.714 357.977L489.424 353.596L491.746 349.725L493.682 345.854L495.618 341.983L497.166 338.112L497.747 336.176L499.102 332.305L499.876 328.434H501.424L501.037 330.369L499.876 334.24L498.715 338.112L497.166 341.983L495.231 345.854L493.295 349.725L490.972 353.596L488.65 357.467L486.327 361.339L483.617 365.21L480.791 369.081L477.81 372.371L475.875 374.501L472.004 377.985L468.132 380.694L464.261 383.404L462.326 384.566L460.39 385.572L456.519 386.501H454.583L458.667 387.572L461.362 387.662H464.261L466.971 387.572L469.204 387.275L472.004 386.501L473.939 385.727L477.81 384.566L481.681 382.63L485.049 380.694L487.488 378.759L489.424 376.823L491.359 374.888L493.295 372.952L495.231 371.016L497.166 368.307L499.102 365.597L500.65 363.274L502.973 359.403L504.908 355.532L507.022 350.77L508.78 345.854L510.715 340.047L511.722 336.176L512.651 331.918L513.366 326.885H515.554L514.586 331.918L512.651 339.66L510.715 345.854L508.78 350.77L506.844 354.758L504.908 358.629L502.973 362.306L501.037 365.403L499.102 368.307L497.166 370.629L495.231 372.952L493.295 374.888L491.359 377.21L489.424 379.146L487.488 380.694L485.049 382.63L481.681 384.566L477.81 386.114L473.939 387.275L470.068 388.437L466.971 389.017L462.326 389.211L456.519 388.824L453.616 388.437L448.777 386.501L445.68 384.566L441.615 380.694L437.744 376.823L436.195 374.888L434.066 371.016L432.324 367.145L431.356 363.274L430.582 359.338L430.195 355.532V353.103V349.725L430.582 345.854L430.969 343.918L431.356 341.983L432.285 338.112L433.292 334.24Z" fill="#B96969" stroke="#B96969" stroke-width="0.2"/>
<path d="M530.071 256.817L531.62 252.559L533.168 252.946L531.62 257.614L530.071 262.624L528.136 268.431L526.2 274.237L523.877 281.98L522.716 287.44L521.942 291.658L521.168 297.464L520.393 303.271L519.232 309.537L518.458 314.885L517.466 319.917H515.748L515.942 318.756L516.329 316.82L516.716 314.885L517.025 312.949L517.49 309.078L517.877 307.142L518.651 303.271L519.232 299.4L519.813 295.529L520.393 291.658L520.974 287.786L521.748 283.915L522.716 280.044L524.265 274.237L526.2 268.431L528.136 262.624L530.071 256.817Z" fill="#B96969" stroke="#B96969" stroke-width="0.2"/>
<path d="M520.393 249.461L521.748 247.139L523.103 247.913L522.329 249.074L521.554 250.318L520.006 252.558L518.458 254.881L516.25 258.365L514.586 260.688L513.038 263.334L509.554 268.43L504.908 275.011L502.973 278.108L501.037 280.818L499.102 283.915L496.779 287.012L493.295 291.657L489.424 297.464L485.553 303.271L481.681 309.077L477.81 314.884L471.229 324.562H470.068H469.294L470.068 323.401L472.004 320.691L473.939 317.594L477.81 312.174L481.681 306.367L483.617 303.271L485.553 300.561L489.424 294.754L493.295 289.141L499.102 280.818L504.908 272.301L508.78 266.494L513.038 260.688L514.586 258.365L518.458 252.558L520.393 249.461Z" fill="#B96969" stroke="#B96969" stroke-width="0.2"/>
<path d="M510.715 252.172L514.586 247.526L516.522 245.204L518.07 243.268L518.457 244.429V245.204L517.296 246.752L514.586 250.236L512.651 252.559L510.715 254.881L508.779 256.817L506.844 258.753L502.198 263.135L497.166 267.269L493.295 270.366L488.262 275.399L483.617 279.27L477.81 283.915L473.939 287.786L472.003 289.722L468.132 293.593L464.261 297.077L460.39 301.335L456.519 305.207L454.583 307.142L452.648 309.078L450.712 311.013L448.776 312.949L445.679 316.82L442.97 320.691L441.034 324.562L439.098 324.175L441.034 320.691L442.97 316.82L444.905 314.11L446.841 311.4L448.776 309.078L450.712 307.142L452.648 305.207L454.583 303.271L456.519 300.948L458.454 299.013L460.39 297.077L462.325 295.142L464.261 293.593L466.197 291.658L468.132 289.722L470.068 287.786L472.003 286.238L475.875 282.754L478.971 280.044L483.617 276.173L488.262 272.302L490.585 270.366L492.908 268.431L495.23 266.495L497.553 264.559L502.198 260.688L506.844 256.43L510.715 252.172Z" fill="#B96969" stroke="#B96969" stroke-width="0.2"/>
<path d="M524.11 252.946L525.813 249.075L526.975 249.849L526.471 251.01L524.845 254.881L521.361 262.624L517.103 272.302L513.619 280.044L509.361 289.722C508.697 291.694 506.8 295.617 506.844 295.529L504.909 299.4L502.586 305.207L498.87 312.949L497.167 316.82L495.16 321.853H493.141L493.683 320.691L495.425 316.82L497.167 312.949L499.876 307.142L503.36 299.4L506.844 291.658L509.322 285.851L511.103 281.98L514.393 274.237L516.135 270.366L518.845 264.559L520.626 260.688L522.329 256.817L524.11 252.946Z" fill="#B96969"/>
<path d="M514.393 274.237L516.135 270.366L518.845 264.559L520.626 260.688L522.329 256.817L524.11 252.946L525.813 249.075L526.975 249.849L526.471 251.01L524.845 254.881L521.361 262.624L517.103 272.302L513.619 280.044L509.361 289.722C508.697 291.694 506.8 295.617 506.844 295.529L504.909 299.4L502.586 305.207L498.87 312.949L497.167 316.82L495.16 321.853H493.141L493.683 320.691L495.425 316.82L497.167 312.949L499.876 307.142L503.36 299.4L506.844 291.658L509.322 285.851L511.103 281.98M514.393 274.237L512.767 278.108L511.103 281.98M514.393 274.237L511.103 281.98" stroke="#B96969" stroke-width="0.2"/>
<path d="M518.457 247.913L520.006 245.591L521.167 246.365L519.425 249.075L518.07 251.01L516.522 252.946L514.586 255.656L512.263 258.753L511.102 260.688L508.779 263.785L506.844 266.108L504.908 268.431L501.811 272.302L499.637 274.624L497.812 276.56L495.23 278.883L492.327 281.98L490.585 283.915L487.802 286.741L485.552 289.335L483.617 291.27L481.681 293.516L479.746 295.529L477.81 297.464L475.874 299.787L473.939 302.11L472.003 304.626L470.068 307.142L468.331 309.465L467.164 311.013L465.809 312.949L464.261 314.885L462.906 316.82L461.358 318.756L459.809 320.691L458.454 322.627L457.68 324.563H455.744L456.519 322.627L458.454 319.724L460.39 317.207L462.325 314.497L464.261 311.788L466.197 309.465L468.132 307.142L470.068 304.432L472.003 302.11L473.939 299.71L475.874 297.464L477.81 295.529L479.746 293.206L481.681 291.077L483.617 288.948L485.552 286.741L489.424 282.754L493.295 278.496L495.23 276.56L497.166 274.624L499.101 272.689L501.037 270.753L502.973 268.431L504.908 265.721L506.844 263.398L508.779 260.688L510.715 257.978L511.489 256.817L512.651 255.423L514.586 252.946L516.522 250.623L518.457 247.913Z" fill="#B96969" stroke="#B96969" stroke-width="0.2"/>
<path d="M526.587 254.881L528.136 250.623L529.684 251.397L528.136 254.881L527.361 256.817L525.813 260.688L524.264 264.559L522.716 268.43L520.393 274.237L518.458 280.044L516.522 285.851L514.974 291.657L513.812 295.529L512.264 301.335L510.328 307.142L509.167 311.013L506.844 316.82L505.895 319.53H504.134L506.844 312.949L508.78 307.142L510.715 301.335L512.845 293.593L514.587 287.786L516.522 281.979L518.458 276.173L520.393 270.366L522.561 264.559L524.845 258.752L526.587 254.881Z" fill="#B96969" stroke="#B96969" stroke-width="0.2"/>
<g filter="url(#filter0_d_102_2)">
<mask id="path-29-inside-1_102_2" fill="white">
<path d="M572.638 155.634C573.245 154.581 574.59 154.22 575.643 154.826L581.947 158.459C583 159.065 583.361 160.411 582.755 161.463L579.753 166.674L569.636 160.844L572.638 155.634Z"/>
</mask>
<path d="M572.638 155.634C573.245 154.581 574.59 154.22 575.643 154.826L581.947 158.459C583 159.065 583.361 160.411 582.755 161.463L579.753 166.674L569.636 160.844L572.638 155.634Z" fill="#F4D7CA"/>
<path d="M572.638 155.634C573.245 154.581 574.59 154.22 575.643 154.826L581.947 158.459C583 159.065 583.361 160.411 582.755 161.463L579.753 166.674L569.636 160.844L572.638 155.634Z" stroke="#B96969" stroke-width="5" mask="url(#path-29-inside-1_102_2)"/>
</g>
<g filter="url(#filter1_d_102_2)">
<rect x="565.686" y="157.021" width="21.2914" height="99.2527" rx="3" transform="rotate(29.9496 565.686 157.021)" fill="#B96969"/>
<rect x="565.649" y="156.885" width="21.4914" height="99.4527" rx="3.1" transform="rotate(29.9496 565.649 156.885)" stroke="#F4D7CA" stroke-width="0.2"/>
</g>
<path d="M437.937 284.05H443.744L443.441 284.824L443.078 285.599H437.937H434.066L430.195 285.986H426.323L421.485 286.373L417.149 286.76L412.774 287.147L408.48 287.534L405.032 287.921L401.161 288.309L397.29 289.083L391.483 290.631L385.676 291.793L379.869 293.728L374.063 295.664L370.192 297.599L366.32 299.535L361.675 301.858L358.578 304.567L356.642 307.277V309.213V311.148L358.578 313.084L359.352 313.749L361.675 315.745L364.869 317.342L368.256 318.891L372.127 320.826L377.934 322.762L383.741 324.697L391.483 326.633L399.528 327.794L406.968 329.343L414.71 330.504L424.63 331.278L430.195 331.666H435.759H440.356H445.074H450.881H454.51H459.228H463.1L470.842 331.278L478.584 330.891L484.391 330.504L492.133 329.343L497.94 328.569L503.747 327.794L513.425 325.859L519.231 324.697L525.038 323.536L532.781 321.601L538.587 318.891L541.491 316.568L544.394 313.858L546.33 311.148L547.878 309.213L548.652 307.277H552.136V309.213V315.02L551.362 322.762L550.201 330.504L548.265 338.247L546.33 344.053L544.007 349.86L542.458 353.731L540.523 357.602L536.652 363.409L532.006 369.216L528.909 373.087L525.038 376.958L521.167 380.829L517.296 384.701L513.425 388.185L507.618 392.443L501.811 395.54L496.004 398.25L490.198 400.572L482.455 403.282L475.318 404.831L470.842 405.992L466.124 406.766L460.075 407.153H450.761H445.679L439.873 406.766L436.001 406.379L432.13 405.605L426.323 404.056L420.517 402.121L414.71 400.185L408.903 397.863L405.032 395.927L401.161 393.604L399.225 392.443L395.354 390.12L393.419 388.572L391.483 386.636L387.612 383.152L384.137 380.055L380.553 376.184L377.934 373.087L374.45 369.216L370.954 364.57L368.643 361.474L366.32 357.602L364.385 353.731L363.223 351.111L361.675 347.924L360.127 344.053L358.965 340.182L358.462 338.247L358.578 336.311H359.352L361.675 342.118L363.223 346.376L366.32 352.57L370.192 359.538L374.063 364.57L377.934 369.216L383.741 376.184L387.612 380.055L393.419 385.088L397.29 388.185L405.032 392.83L412.774 396.314L422.452 400.185L432.13 402.895L441.808 404.056L449.987 404.831H459.228L466.971 404.056L474.713 402.121L482.455 400.185L494.069 396.314L501.811 392.443L509.554 387.41L515.36 382.765L519.231 378.894L525.038 373.087L529.296 367.28L532.006 363.409L534.716 359.538L536.652 355.667L540.523 347.924L542.846 342.118L544.781 336.311L546.33 328.569L547.491 320.826L547.878 316.568L544.394 319.665L540.523 321.988L534.716 324.697L526.974 326.633L511.489 330.117L496.004 332.827L486.327 334.375L473.743 335.15L457.293 335.924L445.679 335.537L432.13 335.15L420.517 334.375L406.968 332.44L383.741 327.794L370.192 322.762L358.578 317.342L354.707 315.02L352.771 311.148V307.277L354.707 303.406L358.578 299.535L366.32 295.664L381.805 289.857L395.354 287.534L410.839 285.986L424.388 284.824L437.937 284.05Z" fill="#B96969" stroke="#B96969"/>
<mask id="path-33-inside-2_102_2" fill="white">
<path fill-rule="evenodd" clip-rule="evenodd" d="M392.453 207.137C388.606 205.704 384.756 202.108 382.349 197.234C378.561 189.561 379.785 181.628 385.083 179.514C388.267 178.245 392.196 179.364 395.648 182.125C398.9 179.656 402.575 178.681 405.634 179.846C410.971 181.879 412.406 189.66 408.839 197.226C406.822 201.505 403.636 204.799 400.284 206.485C399.832 206.812 399.338 207.085 398.802 207.299C397.377 207.867 395.803 207.957 394.19 207.635C393.687 207.555 393.195 207.426 392.718 207.244C392.628 207.21 392.54 207.175 392.453 207.137Z"/>
</mask>
<path fill-rule="evenodd" clip-rule="evenodd" d="M392.453 207.137C388.606 205.704 384.756 202.108 382.349 197.234C378.561 189.561 379.785 181.628 385.083 179.514C388.267 178.245 392.196 179.364 395.648 182.125C398.9 179.656 402.575 178.681 405.634 179.846C410.971 181.879 412.406 189.66 408.839 197.226C406.822 201.505 403.636 204.799 400.284 206.485C399.832 206.812 399.338 207.085 398.802 207.299C397.377 207.867 395.803 207.957 394.19 207.635C393.687 207.555 393.195 207.426 392.718 207.244C392.628 207.21 392.54 207.175 392.453 207.137Z" fill="#B96969"/>
<path d="M392.453 207.137L394.024 203.459L393.938 203.422L393.85 203.389L392.453 207.137ZM382.349 197.234L385.936 195.463L385.936 195.463L382.349 197.234ZM385.083 179.514L383.601 175.799L385.083 179.514ZM395.648 182.125L393.149 185.249L395.583 187.195L398.066 185.311L395.648 182.125ZM405.634 179.846L407.057 176.108L407.057 176.108L405.634 179.846ZM408.839 197.226L412.457 198.931L412.457 198.931L408.839 197.226ZM400.284 206.485L398.486 202.912L398.2 203.056L397.939 203.244L400.284 206.485ZM398.802 207.299L397.32 203.584L397.32 203.584L398.802 207.299ZM394.19 207.635L394.972 203.713L394.895 203.697L394.818 203.685L394.19 207.635ZM392.718 207.244L391.294 210.982L391.294 210.982L392.718 207.244ZM393.85 203.389C391.135 202.378 387.982 199.608 385.936 195.463L378.763 199.005C381.529 204.608 386.077 209.03 391.057 210.886L393.85 203.389ZM385.936 195.463C384.339 192.228 383.914 189.156 384.262 186.899C384.609 184.653 385.598 183.616 386.565 183.23L383.601 175.799C379.27 177.527 376.999 181.513 376.356 185.679C375.714 189.836 376.571 194.566 378.763 199.005L385.936 195.463ZM386.565 183.23C387.868 182.71 390.274 182.949 393.149 185.249L398.146 179.001C394.118 175.779 388.665 173.779 383.601 175.799L386.565 183.23ZM407.057 176.108C402.233 174.27 397.103 175.999 393.229 178.938L398.066 185.311C400.697 183.314 402.918 183.092 404.21 183.584L407.057 176.108ZM412.457 198.931C414.536 194.523 415.266 189.837 414.509 185.735C413.749 181.617 411.371 177.751 407.057 176.108L404.21 183.584C405.233 183.974 406.241 185.015 406.642 187.186C407.045 189.375 406.71 192.362 405.221 195.52L412.457 198.931ZM402.081 210.059C406.333 207.92 410.11 203.911 412.457 198.931L405.221 195.52C403.534 199.1 400.939 201.678 398.486 202.912L402.081 210.059ZM397.939 203.244C397.754 203.378 397.549 203.492 397.32 203.584L400.284 211.014C401.126 210.679 401.91 210.246 402.628 209.727L397.939 203.244ZM397.32 203.584C396.726 203.82 395.955 203.909 394.972 203.713L393.408 211.558C395.652 212.006 398.028 211.914 400.284 211.014L397.32 203.584ZM391.294 210.982C392.036 211.265 392.795 211.464 393.562 211.586L394.818 203.685C394.578 203.647 394.353 203.587 394.141 203.506L391.294 210.982ZM390.882 210.816C391.018 210.874 391.155 210.929 391.294 210.982L394.141 203.506C394.101 203.491 394.062 203.475 394.024 203.459L390.882 210.816Z" fill="#B96969" mask="url(#path-33-inside-2_102_2)"/>
<mask id="path-35-inside-3_102_2" fill="white">
<path fill-rule="evenodd" clip-rule="evenodd" d="M302.127 268.432C296.562 266.358 290.992 261.156 287.511 254.105C282.031 243.006 283.802 231.53 291.466 228.473C296.071 226.636 301.755 228.256 306.748 232.249C311.453 228.678 316.77 227.267 321.194 228.952C328.915 231.893 330.991 243.149 325.832 254.094C322.913 260.285 318.304 265.05 313.454 267.489C312.801 267.961 312.086 268.357 311.311 268.666C309.251 269.488 306.975 269.618 304.641 269.153C303.913 269.037 303.2 268.849 302.51 268.586C302.381 268.537 302.253 268.485 302.127 268.432Z"/>
</mask>
<path fill-rule="evenodd" clip-rule="evenodd" d="M302.127 268.432C296.562 266.358 290.992 261.156 287.511 254.105C282.031 243.006 283.802 231.53 291.466 228.473C296.071 226.636 301.755 228.256 306.748 232.249C311.453 228.678 316.77 227.267 321.194 228.952C328.915 231.893 330.991 243.149 325.832 254.094C322.913 260.285 318.304 265.05 313.454 267.489C312.801 267.961 312.086 268.357 311.311 268.666C309.251 269.488 306.975 269.618 304.641 269.153C303.913 269.037 303.2 268.849 302.51 268.586C302.381 268.537 302.253 268.485 302.127 268.432Z" fill="#B96969"/>
<path d="M302.127 268.432L303.698 264.753L303.611 264.716L303.523 264.683L302.127 268.432ZM287.511 254.105L291.098 252.334L291.098 252.334L287.511 254.105ZM291.466 228.473L289.984 224.757L291.466 228.473ZM306.748 232.249L304.25 235.373L306.684 237.319L309.167 235.435L306.748 232.249ZM321.194 228.952L319.77 232.69L319.77 232.69L321.194 228.952ZM325.832 254.094L322.213 252.388L322.213 252.388L325.832 254.094ZM313.454 267.489L311.657 263.916L311.37 264.06L311.11 264.248L313.454 267.489ZM311.311 268.666L312.793 272.381L312.793 272.381L311.311 268.666ZM304.641 269.153L305.422 265.23L305.346 265.214L305.269 265.202L304.641 269.153ZM302.51 268.586L301.086 272.324L301.086 272.324L302.51 268.586ZM303.523 264.683C299.091 263.032 294.219 258.656 291.098 252.334L283.924 255.876C287.766 263.656 294.033 269.685 300.73 272.18L303.523 264.683ZM291.098 252.334C288.655 247.386 287.943 242.572 288.513 238.883C289.08 235.205 290.798 233.046 292.948 232.188L289.984 224.757C284.47 226.957 281.47 232.065 280.606 237.663C279.744 243.252 280.887 249.725 283.924 255.876L291.098 252.334ZM292.948 232.188C295.673 231.101 299.834 231.841 304.25 235.373L309.247 229.125C303.677 224.671 296.469 222.17 289.984 224.757L292.948 232.188ZM322.618 225.214C316.428 222.856 309.656 225.02 304.33 229.062L309.167 235.435C313.251 232.335 317.113 231.678 319.77 232.69L322.618 225.214ZM329.45 255.799C332.324 249.702 333.292 243.302 332.276 237.796C331.258 232.272 328.123 227.311 322.618 225.214L319.77 232.69C321.986 233.534 323.75 235.67 324.409 239.247C325.072 242.84 324.498 247.541 322.213 252.388L329.45 255.799ZM315.251 271.063C321.001 268.171 326.201 262.69 329.45 255.799L322.213 252.388C319.625 257.879 315.607 261.929 311.657 263.916L315.251 271.063ZM311.11 264.248C310.723 264.527 310.298 264.763 309.829 264.951L312.793 272.381C313.874 271.95 314.878 271.395 315.798 270.73L311.11 264.248ZM309.829 264.951C308.6 265.441 307.126 265.569 305.422 265.23L303.859 273.075C306.824 273.666 309.902 273.534 312.793 272.381L309.829 264.951ZM301.086 272.324C302.042 272.688 303.021 272.945 304.013 273.103L305.269 265.202C304.804 265.128 304.359 265.01 303.934 264.848L301.086 272.324ZM300.556 272.11C300.731 272.185 300.907 272.256 301.086 272.324L303.934 264.848C303.854 264.818 303.775 264.786 303.698 264.753L300.556 272.11Z" fill="#B96969" mask="url(#path-35-inside-3_102_2)"/>
<path d="M622.715 193.051C625.058 190.707 628.862 190.704 631.159 193.092C682.611 246.575 713.071 316.903 716.803 391.158C720.635 467.412 696.008 542.372 647.699 601.496C599.39 660.621 530.842 699.694 455.353 711.136C379.865 722.579 302.817 705.575 239.156 663.424C175.495 621.272 129.76 556.978 110.822 483.013C91.8845 409.048 101.094 330.685 136.665 263.127C172.236 195.568 231.632 143.629 303.331 117.386C373.15 91.8317 449.788 92.4166 519.115 118.904C522.21 120.087 523.692 123.59 522.45 126.662L521.175 129.814C519.932 132.886 516.436 134.362 513.339 133.183C447.552 108.125 374.858 107.605 308.624 131.848C240.51 156.779 184.084 206.12 150.292 270.301C116.499 334.482 107.75 408.926 125.741 479.193C143.732 549.46 187.18 610.539 247.658 650.583C308.136 690.627 381.331 706.781 453.046 695.911C524.76 685.04 589.88 647.92 635.774 591.753C681.668 535.585 705.063 464.373 701.422 391.931C697.882 321.488 669.022 254.767 620.269 203.984C617.974 201.594 617.968 197.799 620.311 195.455L622.715 193.051Z" fill="#B96969"/>
<path d="M820.156 410.152C820.156 636.144 636.953 819.347 410.962 819.347C184.97 819.347 1.76715 636.144 1.76715 410.152C1.76715 184.16 184.97 0.957886 410.962 0.957886C636.953 0.957886 820.156 184.16 820.156 410.152ZM18.135 410.152C18.135 627.104 194.009 802.979 410.962 802.979C627.914 802.979 803.788 627.104 803.788 410.152C803.788 193.2 627.914 17.3257 410.962 17.3257C194.009 17.3257 18.135 193.2 18.135 410.152Z" fill="#B96969"/>
<path d="M64.0218 383.564L65.4777 388.045H70.1893L66.3776 390.814L67.8335 395.295L64.0218 392.526L60.2101 395.295L61.666 390.814L57.8543 388.045H62.5658L64.0218 383.564Z" fill="#B96969"/>
<path d="M64.0218 436.74L65.4777 441.221H70.1893L66.3776 443.99L67.8335 448.471L64.0218 445.702L60.2101 448.471L61.666 443.99L57.8543 441.221H62.5658L64.0218 436.74Z" fill="#B96969"/>
<path d="M74.3975 489.917L75.8535 494.398H80.565L76.7533 497.167L78.2092 501.648L74.3975 498.879L70.5858 501.648L72.0418 497.167L68.2301 494.398H72.9416L74.3975 489.917Z" fill="#B96969"/>
<path d="M92.5551 541.796L94.011 546.277H98.7226L94.9109 549.046L96.3668 553.527L92.5551 550.758L88.7434 553.527L90.1993 549.046L86.3876 546.277H91.0992L92.5551 541.796Z" fill="#B96969"/>
<path d="M117.198 591.081L118.654 595.562H123.365L119.553 598.331L121.009 602.812L117.198 600.043L113.386 602.812L114.842 598.331L111.03 595.562H115.742L117.198 591.081Z" fill="#B96969"/>
<path d="M150.919 635.178L152.375 639.659H157.086L153.274 642.428L154.73 646.909L150.919 644.14L147.107 646.909L148.563 642.428L144.751 639.659H149.463L150.919 635.178Z" fill="#B96969"/>
<path d="M188.531 671.493L189.987 675.974H194.698L190.887 678.744L192.343 683.225L188.531 680.455L184.719 683.225L186.175 678.744L182.363 675.974H187.075L188.531 671.493Z" fill="#B96969"/>
<path d="M230.034 701.324L231.49 705.804H236.202L232.39 708.574L233.846 713.055L230.034 710.285L226.222 713.055L227.678 708.574L223.867 705.804H228.578L230.034 701.324Z" fill="#B96969"/>
<path d="M278.022 725.966L279.478 730.447H284.19L280.378 733.216L281.834 737.697L278.022 734.928L274.211 737.697L275.667 733.216L271.855 730.447H276.567L278.022 725.966Z" fill="#B96969"/>
<path d="M758.902 414.8L760.358 419.281H765.069L761.258 422.051L762.714 426.532L758.902 423.762L755.09 426.532L756.546 422.051L752.734 419.281H757.446L758.902 414.8Z" fill="#B96969"/>
<path d="M756.485 472L757.941 476.481H762.652L758.841 479.25L760.297 483.731L756.485 480.962L752.673 483.731L754.129 479.25L750.317 476.481H755.029L756.485 472Z" fill="#B96969"/>
<path d="M740.485 532L741.941 536.481H746.652L742.841 539.25L744.297 543.731L740.485 540.962L736.673 543.731L738.129 539.25L734.317 536.481H739.029L740.485 532Z" fill="#B96969"/>
<path d="M713.485 583L714.941 587.481H719.652L715.841 590.25L717.297 594.731L713.485 591.962L709.673 594.731L711.129 590.25L707.317 587.481H712.029L713.485 583Z" fill="#B96969"/>
<path d="M674.485 631L675.941 635.481H680.652L676.841 638.25L678.297 642.731L674.485 639.962L670.673 642.731L672.129 638.25L668.317 635.481H673.029L674.485 631Z" fill="#B96969"/>
<path d="M623.485 679L624.941 683.481H629.652L625.841 686.25L627.297 690.731L623.485 687.962L619.673 690.731L621.129 686.25L617.317 683.481H622.029L623.485 679Z" fill="#B96969"/>
<path d="M566.485 713L567.941 717.481H572.652L568.841 720.25L570.297 724.731L566.485 721.962L562.673 724.731L564.129 720.25L560.317 717.481H565.029L566.485 713Z" fill="#B96969"/>
<path d="M506.485 740L507.941 744.481H512.652L508.841 747.25L510.297 751.731L506.485 748.962L502.673 751.731L504.129 747.25L500.317 744.481H505.029L506.485 740Z" fill="#B96969"/>
<path d="M448.485 752L449.941 756.481H454.652L450.841 759.25L452.297 763.731L448.485 760.962L444.673 763.731L446.129 759.25L442.317 756.481H447.029L448.485 752Z" fill="#B96969"/>
<path d="M329.485 746L330.941 750.481H335.652L331.841 753.25L333.297 757.731L329.485 754.962L325.673 757.731L327.129 753.25L323.317 750.481H328.029L329.485 746Z" fill="#B96969"/>
<path d="M390.485 756L391.941 760.481H396.652L392.841 763.25L394.297 767.731L390.485 764.962L386.673 767.731L388.129 763.25L384.317 760.481H389.029L390.485 756Z" fill="#B96969"/>
<path d="M756.605 358.922L758.061 363.402H762.772L758.961 366.172L760.417 370.653L756.605 367.883L752.793 370.653L754.249 366.172L750.437 363.402H755.149L756.605 358.922Z" fill="#B96969"/>
<path d="M743.635 304.449L745.091 308.93H749.803L745.991 311.699L747.447 316.18L743.635 313.411L739.823 316.18L741.279 311.699L737.468 308.93H742.179L743.635 304.449Z" fill="#B96969"/>
<path d="M723.884 250.273L725.34 254.754H730.051L726.239 257.523L727.695 262.004L723.884 259.235L720.072 262.004L721.528 257.523L717.716 254.754H722.428L723.884 250.273Z" fill="#B96969"/>
<path d="M697.647 205.88L699.103 210.36H703.815L700.003 213.13L701.459 217.611L697.647 214.841L693.836 217.611L695.291 213.13L691.48 210.36H696.191L697.647 205.88Z" fill="#B96969"/>
<path d="M663.223 165.673L664.679 170.154H669.39L665.579 172.924L667.035 177.405L663.223 174.635L659.411 177.405L660.867 172.924L657.055 170.154H661.767L663.223 165.673Z" fill="#B96969"/>
<path d="M625.611 130.655L627.067 135.136H631.778L627.967 137.905L629.422 142.386L625.611 139.617L621.799 142.386L623.255 137.905L619.443 135.136H624.155L625.611 130.655Z" fill="#B96969"/>
<path d="M582.811 100.825L584.267 105.306H588.978L585.166 108.075L586.622 112.556L582.811 109.787L578.999 112.556L580.455 108.075L576.643 105.306H581.355L582.811 100.825Z" fill="#B96969"/>
<path d="M532.229 76.1821L533.685 80.663H538.396L534.585 83.4324L536.041 87.9133L532.229 85.1439L528.417 87.9133L529.873 83.4324L526.061 80.663H530.773L532.229 76.1821Z" fill="#B96969"/>
<path d="M477.756 61.9154L479.212 66.3963H483.924L480.112 69.1657L481.568 73.6466L477.756 70.8773L473.944 73.6466L475.4 69.1657L471.589 66.3963H476.3L477.756 61.9154Z" fill="#B96969"/>
<path d="M418.095 55.4307L419.551 59.9116H424.263L420.451 62.681L421.907 67.1619L418.095 64.3925L414.284 67.1619L415.74 62.681L411.928 59.9116H416.64L418.095 55.4307Z" fill="#B96969"/>
<path d="M353.485 62L354.941 66.4809H359.652L355.841 69.2503L357.297 73.7312L353.485 70.9619L349.673 73.7312L351.129 69.2503L347.317 66.4809H352.029L353.485 62Z" fill="#B96969"/>
<path d="M290.485 75L291.941 79.4809H296.652L292.841 82.2503L294.297 86.7312L290.485 83.9619L286.673 86.7312L288.129 82.2503L284.317 79.4809H289.029L290.485 75Z" fill="#B96969"/>
<path d="M231.485 101L232.941 105.481H237.652L233.841 108.25L235.297 112.731L231.485 109.962L227.673 112.731L229.129 108.25L225.317 105.481H230.029L231.485 101Z" fill="#B96969"/>
<path d="M184.485 131L185.941 135.481H190.652L186.841 138.25L188.297 142.731L184.485 139.962L180.673 142.731L182.129 138.25L178.317 135.481H183.029L184.485 131Z" fill="#B96969"/>
<path d="M147.485 173L148.941 177.481H153.652L149.841 180.25L151.297 184.731L147.485 181.962L143.673 184.731L145.129 180.25L141.317 177.481H146.029L147.485 173Z" fill="#B96969"/>
<path d="M113.485 215L114.941 219.481H119.652L115.841 222.25L117.297 226.731L113.485 223.962L109.673 226.731L111.129 222.25L107.317 219.481H112.029L113.485 215Z" fill="#B96969"/>
<path d="M87.4849 272L88.9408 276.481H93.6523L89.8406 279.25L91.2966 283.731L87.4849 280.962L83.6732 283.731L85.1291 279.25L81.3174 276.481H86.0289L87.4849 272Z" fill="#B96969"/>
<path d="M71.4849 329L72.9408 333.481H77.6523L73.8406 336.25L75.2966 340.731L71.4849 337.962L67.6732 340.731L69.1291 336.25L65.3174 333.481H70.0289L71.4849 329Z" fill="#B96969"/>
<defs>
<filter id="filter0_d_102_2" x="565.636" y="154.532" width="21.4131" height="20.1415" filterUnits="userSpaceOnUse" color-interpolation-filters="sRGB">
<feFlood flood-opacity="0" result="BackgroundImageFix"/>
<feColorMatrix in="SourceAlpha" type="matrix" values="0 0 0 0 0 0 0 0 0 0 0 0 0 0 0 0 0 0 127 0" result="hardAlpha"/>
<feOffset dy="4"/>
<feGaussianBlur stdDeviation="2"/>
<feComposite in2="hardAlpha" operator="out"/>
<feColorMatrix type="matrix" values="0 0 0 0 0 0 0 0 0 0 0 0 0 0 0 0 0 0 0.25 0"/>
<feBlend mode="normal" in2="BackgroundImageFix" result="effect1_dropShadow_102_2"/>
<feBlend mode="normal" in="SourceGraphic" in2="effect1_dropShadow_102_2" result="shape"/>
</filter>
<filter id="filter1_d_102_2" x="513.032" y="157.918" width="74.2058" height="102.835" filterUnits="userSpaceOnUse" color-interpolation-filters="sRGB">
<feFlood flood-opacity="0" result="BackgroundImageFix"/>
<feColorMatrix in="SourceAlpha" type="matrix" values="0 0 0 0 0 0 0 0 0 0 0 0 0 0 0 0 0 0 127 0" result="hardAlpha"/>
<feOffset dy="4"/>
<feGaussianBlur stdDeviation="2"/>
<feComposite in2="hardAlpha" operator="out"/>
<feColorMatrix type="matrix" values="0 0 0 0 0 0 0 0 0 0 0 0 0 0 0 0 0 0 0.25 0"/>
<feBlend mode="normal" in2="BackgroundImageFix" result="effect1_dropShadow_102_2"/>
<feBlend mode="normal" in="SourceGraphic" in2="effect1_dropShadow_102_2" result="shape"/>
</filter>
</defs>
</svg>
