<svg width="92" height="92" viewBox="0 0 92 92" fill="none" xmlns="http://www.w3.org/2000/svg">
<path fill-rule="evenodd" clip-rule="evenodd" d="M73.2723 58.3445C72.9085 60.9155 71.5684 63.2019 69.6157 64.7825C72.5892 63.5496 74.8144 60.9496 75.5707 57.8174C75.129 57.9968 74.6566 58.1371 74.1601 58.2309C73.8616 58.2873 73.565 58.3249 73.2723 58.3445Z" fill="#B96969"/>
<path fill-rule="evenodd" clip-rule="evenodd" d="M77.2515 63.7048C74.9138 62.9955 72.3982 63.2826 70.2183 64.4077C72.5417 62.2205 75.7036 61.2608 78.6861 61.8422C78.3441 62.1686 78.0222 62.5385 77.7293 62.9489C77.5532 63.1958 77.3939 63.4484 77.2515 63.7048Z" fill="#B96969"/>
<path fill-rule="evenodd" clip-rule="evenodd" d="M73.2138 58.31C73.2009 58.5473 73.18 58.7824 73.1513 59.0151C74.1056 59.6199 74.974 60.3961 75.7088 61.338C77.8264 64.0522 78.3402 67.5081 77.391 70.5642C79.7452 67.0372 79.7012 62.2591 76.95 58.7327C76.6002 58.2843 76.2201 57.8735 75.8148 57.5008C75.1918 57.8352 74.489 58.0874 73.7298 58.2308C73.557 58.2635 73.3849 58.2898 73.2138 58.31Z" fill="#B96969"/>
<path fill-rule="evenodd" clip-rule="evenodd" d="M70.653 57.3602C70.3161 57.5664 69.921 57.7281 69.4865 57.8248C69.1452 57.9007 68.8089 57.9301 68.4901 57.9179C68.192 59.5242 67.5077 60.8519 66.4237 61.7223C65.4179 62.5299 64.1804 62.8536 62.8306 62.7489C62.8085 62.9811 62.7815 63.2108 62.7499 63.4376C64.8906 64.2082 66.9124 64.0825 68.4162 62.875C69.8652 61.7116 70.6001 59.7309 70.653 57.3602Z" fill="#B96969"/>
<path fill-rule="evenodd" clip-rule="evenodd" d="M70.6025 70.507C69.7732 70.311 68.9139 70.2473 68.056 70.3127C67.7842 68.6137 67.2034 67.1931 66.295 66.1825C65.2801 65.0534 63.9664 64.5586 62.4836 64.63C62.4806 64.2915 62.4709 63.9564 62.455 63.6253C64.913 62.6615 67.136 62.9162 68.6735 64.6266C69.8788 65.9675 70.5073 68.0301 70.6025 70.507Z" fill="#B96969"/>
<path fill-rule="evenodd" clip-rule="evenodd" d="M57.4078 53.3676C60.0864 55.419 61.9248 58.2781 62.3482 61.549C62.8007 65.0438 61.5525 68.3506 59.1662 70.8791C62.9316 68.2568 65.1041 64.1182 64.5291 59.6758C64.0959 56.33 62.1822 53.415 59.4032 51.3547C58.8107 52.0604 58.143 52.7334 57.4078 53.3676Z" fill="#B96969"/>
<path fill-rule="evenodd" clip-rule="evenodd" d="M53.988 70.6449C56.2203 70.9792 58.472 68.2976 59.0174 64.6555C59.5628 61.0135 58.1953 57.79 55.9631 57.4557C53.7308 57.1214 51.4791 59.8029 50.9337 63.445C50.3883 67.0871 51.7557 70.3106 53.988 70.6449ZM55.4569 66.5081C56.5143 66.6665 57.6425 64.9852 57.9767 62.753C58.311 60.5207 57.7248 58.5828 56.6674 58.4244C55.6101 58.2661 54.4819 59.9473 54.1476 62.1796C53.8133 64.4118 54.3995 66.3498 55.4569 66.5081Z" fill="#B96969"/>
<path fill-rule="evenodd" clip-rule="evenodd" d="M53.842 55.7115C52.815 56.4691 51.7781 57.0544 50.8223 57.4406C51.1235 59.4006 51.1725 61.4439 50.9363 63.5256C49.8826 72.8087 43.4711 80.0763 35.453 82.1028C44.9065 80.9474 52.7948 72.873 53.9968 62.2832C54.2523 60.0322 54.1879 57.8242 53.842 55.7115Z" fill="#B96969"/>
<path fill-rule="evenodd" clip-rule="evenodd" d="M43.7759 57.5746C45.1653 58.6232 46.0977 61.2336 46.0068 64.2577C45.9155 67.2908 44.8217 69.8466 43.3652 70.8032C45.2306 70.6731 47.2031 68.1193 47.9683 64.6795C48.6317 61.6972 48.1909 58.9334 46.9968 57.6588C46.5296 57.7764 46.0404 57.8389 45.5367 57.8389C44.9237 57.8389 44.3324 57.7464 43.7759 57.5746Z" fill="#B96969"/>
<circle cx="45.316" cy="55.1901" r="1.32444" fill="#B96969"/>
<path d="M27.1978 52.3624H33.2206H37.0924L39.8887 51.9322L42.4699 51.2869L44.1907 50.8567L45.9115 50.2114L47.6323 49.5661L49.138 48.7057L48.7078 49.7812L48.0625 50.4265L46.1266 51.502L43.7605 52.5775L40.9642 53.4379L37.0924 54.0832L33.2206 54.5134L29.5639 54.0832L27.1978 52.3624Z" fill="#B96969"/>
<path fill-rule="evenodd" clip-rule="evenodd" d="M40.2649 58.9663C40.3877 59.008 40.4783 59.0306 40.5339 59.0306C43.3302 59.0306 39.5801 55.6975 34.2223 54.7396C33.1654 54.5506 32.0519 54.0278 30.9736 53.5216C28.8354 52.5177 26.8359 51.579 25.692 53.4379C25.7503 53.5546 25.7928 53.6636 25.8329 53.7664C26.0534 54.3314 26.201 54.7096 28.5033 55.1547C30.4006 54.7694 32.6173 54.8885 34.8416 55.6079C37.0716 56.3292 38.9458 57.5362 40.2649 58.9663Z" fill="#B96969"/>
<path fill-rule="evenodd" clip-rule="evenodd" d="M39.4585 70.646C41.7156 70.646 43.5454 67.6606 43.5454 63.9779C43.5454 60.2952 41.7156 57.3098 39.4585 57.3098C37.2014 57.3098 35.3716 60.2952 35.3716 63.9779C35.3716 67.6606 37.2014 70.646 39.4585 70.646ZM40.3189 67.2044C41.3881 67.2044 42.2548 65.3746 42.2548 63.1175C42.2548 60.8603 41.3881 59.0306 40.3189 59.0306C39.2498 59.0306 38.383 60.8603 38.383 63.1175C38.383 65.3746 39.2498 67.2044 40.3189 67.2044Z" fill="#B96969"/>
<path fill-rule="evenodd" clip-rule="evenodd" d="M30.5759 58.8655C27.9423 60.3951 27.0013 63.2248 28.0283 66.0159C27.9789 63.7349 29.2585 61.6615 31.7059 60.5793C32.1995 60.3611 32.7172 60.1934 33.2511 60.0742C33.3783 59.6845 33.5265 59.3053 33.6943 58.938C33.3792 58.7378 33.0881 58.5232 32.8233 58.2986C32.1003 58.551 31.3491 58.742 30.5759 58.8655Z" fill="#B96969"/>
<path fill-rule="evenodd" clip-rule="evenodd" d="M24.305 58.3505C23.9957 58.4762 23.668 58.5846 23.3246 58.6725C23.2725 58.6858 23.2205 58.6986 23.1685 58.7108C23.1986 58.9508 23.2178 59.1943 23.2256 59.4408C23.9668 59.7808 24.6565 60.2189 25.2676 60.755C27.3046 62.5417 27.9923 64.9988 27.3748 67.289C29.1672 64.5703 28.8253 61.1617 26.2553 58.8414C25.587 58.727 24.9356 58.562 24.305 58.3505Z" fill="#B96969"/>
<path fill-rule="evenodd" clip-rule="evenodd" d="M30.624 58.8577C30.5996 58.9554 30.5764 59.0536 30.5545 59.1525C29.5196 63.8272 31.6467 68.5245 35.5034 70.9316C33.2065 68.3613 32.1298 64.7498 32.9264 61.1517C33.2028 59.9032 33.6823 58.7575 34.322 57.7415C34.3105 57.7229 34.2991 57.7043 34.2877 57.6856C33.1475 58.246 31.9168 58.6463 30.624 58.8577Z" fill="#B96969"/>
<path fill-rule="evenodd" clip-rule="evenodd" d="M23.0807 57.8703C23.2413 59.0551 23.2294 60.2873 23.0226 61.5364C22.3357 65.686 19.6591 69.0531 16.1331 70.7983C21.2417 69.8894 25.4927 65.8192 26.3851 60.428C26.4556 60.0021 26.5034 59.5783 26.5295 59.1576C26.441 59.0501 26.3499 58.9447 26.2563 58.8417C25.1451 58.6514 24.0805 58.3215 23.0807 57.8703Z" fill="#B96969"/>
<path fill-rule="evenodd" clip-rule="evenodd" d="M12.3215 70.57C18.8944 68.1675 21.2119 61.4134 21.0314 53.8867C20.9717 51.3979 21.5281 48.7964 21.9775 46.6948C22.3507 44.95 22.6502 43.5498 22.4622 42.8447C21.0592 44.5321 19.1749 45.7573 17.0377 46.2777C16.5159 48.1334 16.9922 50.7445 17.3482 52.6958L17.3482 52.6958C17.4105 53.0377 17.4692 53.3593 17.5181 53.653C17.6284 55.0562 17.7027 56.1823 17.6809 57.1752C18.1142 62.3864 16.0021 67.2953 12.3215 70.57Z" fill="#B96969"/>
<path d="M21.1268 39.234C21.6584 40.1616 21.6051 41.8225 19.0239 42.898C17.088 44.6188 16.2697 43.2502 15.7381 42.3226C15.2064 41.395 15.9817 39.9516 17.4697 39.0987C18.9578 38.2458 20.5951 38.3064 21.1268 39.234Z" fill="#B96969"/>
<path d="M49.2675 34.4401L49.3241 34.1573H49.5503L49.4938 34.4401L49.4372 34.7229L49.2675 35.2885L49.1544 35.8541L49.0979 36.345L49.0696 36.7903V37.2681L49.0979 37.8337L49.1261 38.2081L49.211 38.6821L49.2675 38.9649L49.4938 39.5305L49.6917 39.9071L49.8049 40.0961L49.918 40.2938L50.1442 40.5438L50.2856 40.6336L50.1725 40.2704L50.1442 39.9071V39.5305L50.2008 38.9649L50.2856 38.3993L50.3638 38.0284L50.4553 37.5509L50.5684 37.1223L50.6815 36.7025L50.8229 36.2005L50.9643 35.8541L51.2471 35.2885L51.5299 34.7229L51.8127 34.1573H52.0955L51.8127 34.7229L51.5299 35.2885L51.2471 35.8541L51.0209 36.4197L50.8229 36.9853L50.6815 37.5509L50.5684 38.1165L50.4553 38.6821L50.3761 39.2477L50.3638 39.4939V39.8736L50.3987 40.3789L50.5119 40.6617L50.6815 40.9444L51.0209 41.3059V41.2511V40.9444V40.6617L51.0492 40.3789L51.174 39.8736L51.2471 39.5305L51.4168 39.0343L51.6431 38.3993L51.8693 37.8337L52.0955 37.2681L52.4066 36.7025L52.548 36.4197L52.8874 35.8541L53.2267 35.2885L53.5095 34.7229L53.7923 34.1573H54.1317L53.8489 34.7229L53.5095 35.2885L53.0005 36.1369L52.6611 36.7025L52.3783 37.2681L52.0955 37.8337L51.8693 38.3993L51.5865 39.2477L51.4168 39.8133L51.2471 40.3789L51.174 40.8313V41.0897V41.3404L51.2471 41.51L51.3754 41.6232L51.5925 41.7363H51.6996L51.8127 41.6232L51.9259 41.51L52.1953 41.2812L52.3982 41.0897L52.8308 40.6617L53.1136 40.3789L53.3399 40.0961L53.5661 39.8133L53.7923 39.5305L54.0186 39.2477L54.3579 38.8581L54.6973 38.3993L54.9235 38.1165L55.1102 37.8337L55.3194 37.5509L55.6362 37.1051L55.9133 36.7025L56.1113 36.4197L56.2244 36.2346L56.4506 35.8541L56.6203 35.5713L56.6769 35.4359L56.9031 35.0057L57.1294 34.4401L57.3273 33.8745H57.5818L57.4687 34.1573L57.1011 35.0057L56.6769 35.8541L56.1678 36.7025L55.6249 37.5509L55.2063 38.1165L54.7538 38.6821L54.3014 39.2477L54.0751 39.5305L53.8772 39.8133L53.4247 40.3789L53.1702 40.6617L52.8874 40.9444L52.6046 41.2272L52.2652 41.51L51.9259 41.7928L52.1953 41.9399H52.3982L52.9439 41.7928L53.3688 41.6232L53.5095 41.51L53.7923 41.3404L54.3579 40.9444L54.7538 40.6617L55.1112 40.3223L55.4533 40.0112L55.885 39.5305L56.1113 39.2477L56.3375 38.9649L56.7334 38.3993L57.0728 37.9081L57.4687 37.2681L57.8081 36.7025L58.0909 36.1369L58.3737 35.5713L58.5999 35.0057L58.6848 34.7229L58.8827 34.1573L58.9958 33.5917H59.2221L59.1655 33.8745L58.9958 34.4401L58.8262 35.0057L58.5999 35.5713L58.3171 36.1369L58.0343 36.7025L57.695 37.2681L57.3556 37.8337L57.0162 38.3993L56.6203 38.9649L56.2074 39.5305L55.7719 40.0112L55.4891 40.3223L54.9235 40.8313L54.3579 41.2272L53.7923 41.6232L53.5095 41.7928L53.2267 41.9399L52.6611 42.0756H52.3783L52.975 42.2321L53.3688 42.2453H53.7923L54.1882 42.2321L54.5145 42.1888L54.9235 42.0756L55.2063 41.9625L55.7719 41.7928L56.3375 41.51L56.8296 41.2272L57.1859 40.9444L57.4687 40.6617L57.7515 40.3789L58.0343 40.0961L58.3171 39.8133L58.5999 39.4173L58.8827 39.0214L59.109 38.6821L59.4483 38.1165L59.7311 37.5509L60.0399 36.8552L60.2967 36.1369L60.5795 35.2885L60.7266 34.7229L60.8623 34.1007L60.9667 33.3654H61.2865L61.1451 34.1007L60.8623 35.2319L60.5795 36.1369L60.2967 36.8552L60.0139 37.4377L59.7311 38.0033L59.4483 38.5407L59.1655 38.9931L58.8827 39.4173L58.5999 39.7567L58.3171 40.0961L58.0343 40.3789L57.7515 40.7182L57.4687 41.001L57.1859 41.2272L56.8296 41.51L56.3375 41.7928L55.7719 42.0191L55.2063 42.1888L54.6407 42.3584L54.1882 42.4433L53.5095 42.4716L52.6611 42.415L52.2369 42.3584L51.5299 42.0756L51.0775 41.7928L50.4836 41.2272L49.918 40.6617L49.6917 40.3789L49.3807 39.8133L49.1261 39.2477L48.9847 38.6821L48.8716 38.107L48.8151 37.5509V37.196V36.7025L48.8716 36.1369L48.9282 35.8541L48.9847 35.5713L49.1205 35.0057L49.2675 34.4401Z" fill="#B96969" stroke="#B96969" stroke-width="0.2"/>
<path d="M63.4075 23.1281L63.6338 22.506L63.86 22.5625L63.6338 23.2445L63.4075 23.9765L63.1247 24.8249L62.8419 25.6733L62.5026 26.8045L62.3329 27.6022L62.2198 28.2185L62.1067 29.0669L61.9935 29.9153L61.8239 30.8308L61.7107 31.6121L61.5658 32.3473H61.3148L61.3431 32.1777L61.3997 31.8949L61.4562 31.6121L61.5015 31.3293L61.5693 30.7637L61.6259 30.4809L61.739 29.9153L61.8239 29.3497L61.9087 28.7841L61.9935 28.2185L62.0784 27.6529L62.1915 27.0873L62.3329 26.5217L62.5591 25.6733L62.8419 24.8249L63.1247 23.9765L63.4075 23.1281Z" fill="#B96969" stroke="#B96969" stroke-width="0.2"/>
<path d="M61.9935 22.0534L62.1914 21.714L62.3894 21.8272L62.2763 21.9968L62.1632 22.1785L61.9369 22.5059L61.7107 22.8452L61.3881 23.3543L61.1451 23.6936L60.9188 24.0803L60.4098 24.8248L59.7311 25.7863L59.4483 26.2388L59.1655 26.6347L58.8827 27.0872L58.5433 27.5397L58.0343 28.2184L57.4687 29.0668L56.9031 29.9152L56.3375 30.7636L55.7719 31.612L54.8104 33.026H54.6407H54.5276L54.6407 32.8563L54.9235 32.4604L55.2063 32.0079L55.7719 31.2161L56.3375 30.3677L56.6203 29.9152L56.9031 29.5193L57.4687 28.6709L58.0343 27.8508L58.8827 26.6347L59.7311 25.3904L60.2967 24.542L60.9188 23.6936L61.1451 23.3543L61.7107 22.5059L61.9935 22.0534Z" fill="#B96969" stroke="#B96969" stroke-width="0.2"/>
<path d="M60.5795 22.4494L61.1451 21.7706L61.4279 21.4313L61.6541 21.1485L61.7107 21.3182V21.4313L61.541 21.6575L61.1451 22.1666L60.8623 22.5059L60.5795 22.8453L60.2967 23.1281L60.0139 23.4109L59.3352 24.0512L58.5999 24.6552L58.0343 25.1077L57.299 25.843L56.6203 26.4086L55.7719 27.0873L55.2063 27.6529L54.9235 27.9357L54.3579 28.5013L53.7923 29.0103L53.2267 29.6325L52.6611 30.1981L52.3783 30.4809L52.0955 30.7637L51.8127 31.0465L51.5299 31.3293L51.0774 31.8949L50.6815 32.4605L50.3987 33.0261L50.1159 32.9695L50.3987 32.4605L50.6815 31.8949L50.9643 31.4989L51.2471 31.103L51.5299 30.7637L51.8127 30.4809L52.0955 30.1981L52.3783 29.9153L52.6611 29.5759L52.9439 29.2931L53.2267 29.0103L53.5095 28.7275L53.7923 28.5013L54.0751 28.2185L54.3579 27.9357L54.6407 27.6529L54.9235 27.4266L55.4891 26.9176L55.9416 26.5217L56.6203 25.9561L57.299 25.3905L57.6384 25.1077L57.9777 24.8249L58.3171 24.5421L58.6564 24.2593L59.3352 23.6937L60.0139 23.0715L60.5795 22.4494Z" fill="#B96969" stroke="#B96969" stroke-width="0.2"/>
<path d="M62.5366 22.5625L62.7854 21.9969L62.9551 22.11L62.8816 22.2797L62.644 22.8453L62.135 23.9765L61.5128 25.3905L61.0038 26.5217L60.3816 27.9357C60.2847 28.2238 60.0076 28.7969 60.014 28.7841L59.7312 29.3497L59.3918 30.1981L58.8489 31.3293L58.6 31.8949L58.3069 32.6301H58.0118L58.091 32.4605L58.3455 31.8949L58.6 31.3293L58.9959 30.4809L59.505 29.3497L60.014 28.2185L60.376 27.3701L60.6362 26.8045L61.1169 25.6733L61.3714 25.1077L61.7674 24.2593L62.0275 23.6937L62.2764 23.1281L62.5366 22.5625Z" fill="#B96969"/>
<path d="M61.1169 25.6733L61.3714 25.1077L61.7674 24.2593L62.0275 23.6937L62.2764 23.1281L62.5366 22.5625L62.7854 21.9969L62.9551 22.11L62.8816 22.2797L62.644 22.8453L62.135 23.9765L61.5128 25.3905L61.0038 26.5217L60.3816 27.9357C60.2847 28.2238 60.0076 28.7969 60.014 28.7841L59.7312 29.3497L59.3918 30.1981L58.8489 31.3293L58.6 31.8949L58.3069 32.6301H58.0118L58.091 32.4605L58.3455 31.8949L58.6 31.3293L58.9959 30.4809L59.505 29.3497L60.014 28.2185L60.376 27.3701L60.6362 26.8045M61.1169 25.6733L60.8794 26.2389L60.6362 26.8045M61.1169 25.6733L60.6362 26.8045" stroke="#B96969" stroke-width="0.2"/>
<path d="M61.7107 21.8272L61.9369 21.4879L62.1066 21.601L61.8521 21.9969L61.6541 22.2797L61.4279 22.5625L61.1451 22.9584L60.8057 23.4109L60.636 23.6937L60.2967 24.1462L60.0139 24.4855L59.7311 24.8249L59.2786 25.3905L58.9609 25.7299L58.6942 26.0127L58.3171 26.352L57.8929 26.8045L57.6384 27.0873L57.2318 27.5002L56.9031 27.8791L56.6203 28.1619L56.3375 28.49L56.0547 28.7841L55.7719 29.0669L55.4891 29.4062L55.2063 29.7456L54.9235 30.1132L54.6407 30.4809L54.3869 30.8202L54.2165 31.0465L54.0185 31.3293L53.7923 31.6121L53.5943 31.8949L53.3681 32.1777L53.1419 32.4605L52.9439 32.7433L52.8308 33.0261H52.548L52.6611 32.7433L52.9439 32.3191L53.2267 31.9514L53.5095 31.5555L53.7923 31.1596L54.0751 30.8202L54.3579 30.4809L54.6407 30.085L54.9235 29.7456L55.2063 29.3949L55.4891 29.0669L55.7719 28.7841L56.0547 28.4447L56.3375 28.1336L56.6203 27.8226L56.9031 27.5002L57.4687 26.9176L58.0343 26.2955L58.3171 26.0127L58.5999 25.7299L58.8827 25.4471L59.1655 25.1643L59.4483 24.8249L59.7311 24.429L60.0139 24.0896L60.2967 23.6937L60.5795 23.2978L60.6926 23.1281L60.8623 22.9245L61.1451 22.5625L61.4279 22.2231L61.7107 21.8272Z" fill="#B96969" stroke="#B96969" stroke-width="0.2"/>
<path d="M62.8985 22.8453L63.1248 22.2231L63.351 22.3363L63.1248 22.8453L63.0116 23.1281L62.7854 23.6937L62.5592 24.2593L62.3329 24.8249L61.9936 25.6733L61.7108 26.5216L61.428 27.37L61.2017 28.2184L61.032 28.784L60.8058 29.6324L60.523 30.4808L60.3533 31.0464L60.014 31.8948L59.8752 32.2908H59.618L60.014 31.3292L60.2968 30.4808L60.5796 29.6324L60.8906 28.5012L61.1452 27.6528L61.428 26.8044L61.7108 25.9561L61.9936 25.1077L62.3103 24.2593L62.644 23.4109L62.8985 22.8453Z" fill="#B96969" stroke="#B96969" stroke-width="0.2"/>
<g filter="url(#filter0_d_162_86)">
<path d="M69.6772 8.48946C69.9124 8.08129 70.4339 7.94105 70.8421 8.17624C71.2503 8.41142 71.3905 8.93296 71.1553 9.34114L70.9821 9.64183L69.5039 8.79015L69.6772 8.48946Z" fill="#F4D7CA"/>
<path d="M69.8938 8.61427C70.0601 8.32573 70.4287 8.2266 70.7173 8.39285C71.0058 8.5591 71.105 8.92779 70.9387 9.21632L70.8903 9.3004L69.8454 8.69835L69.8938 8.61427Z" stroke="#B96969" stroke-width="0.5"/>
</g>
<g filter="url(#filter1_d_162_86)">
<rect x="68.611" y="8.70532" width="3.11079" height="14.5014" rx="1" transform="rotate(29.9496 68.611 8.70532)" fill="#B96969"/>
<rect x="68.5742" y="8.56875" width="3.31079" height="14.7014" rx="1.1" transform="rotate(29.9496 68.5742 8.56875)" stroke="#F4D7CA" stroke-width="0.2"/>
</g>
<path d="M49.9462 27.5807H50.7946L50.7504 27.6939L50.6974 27.807H49.9462H49.3806L48.815 27.8635H48.2494L47.5424 27.9201L46.909 27.9767L46.2698 28.0332L45.6424 28.0898L45.1386 28.1463L44.573 28.2029L44.0074 28.316L43.159 28.5423L42.3106 28.7119L41.4622 28.9947L40.6138 29.2775L40.0482 29.5603L39.4826 29.8431L38.8039 30.1825L38.3514 30.5784L38.0687 30.9743V31.2571V31.5399L38.3514 31.8227L38.4646 31.92L38.8039 32.2116L39.2705 32.4449L39.7654 32.6711L40.331 32.9539L41.1794 33.2367L42.0278 33.5195L43.159 33.8023L44.3344 33.972L45.4214 34.1983L46.5526 34.3679L48.002 34.4811L48.815 34.5376H49.6281H50.2997H50.989H51.8374H52.3677H53.057H53.6226L54.7538 34.4811L55.885 34.4245L56.7334 34.3679L57.8646 34.1983L58.713 34.0851L59.5614 33.972L60.9754 33.6892L61.8238 33.5195L62.6722 33.3499L63.8034 33.0671L64.6518 32.6711L65.076 32.3318L65.5002 31.9359L65.783 31.5399L66.0092 31.2571L66.1223 30.9743H66.6314V31.2571V32.1055L66.5182 33.2367L66.3486 34.3679L66.0658 35.4991L65.783 36.3475L65.4436 37.1959L65.2174 37.7615L64.9346 38.3271L64.369 39.1755L63.6903 40.0239L63.2378 40.5895L62.6722 41.1551L62.1066 41.7207L61.541 42.2863L60.9754 42.7953L60.127 43.4175L59.2786 43.87L58.4302 44.2659L57.5818 44.6053L56.4506 45.0012L55.4078 45.2274L54.7538 45.3971L54.0645 45.5102L53.1807 45.5668H51.8199H51.0774L50.229 45.5102L49.6634 45.4537L49.0978 45.3405L48.2494 45.1143L47.401 44.8315L46.5526 44.5487L45.7042 44.2093L45.1386 43.9265L44.573 43.5872L44.2902 43.4175L43.7246 43.0781L43.4418 42.8519L43.159 42.5691L42.5934 42.0601L42.0857 41.6076L41.5621 41.042L41.1794 40.5895L40.6704 40.0239L40.1596 39.3452L39.822 38.8927L39.4826 38.3271L39.1998 37.7615L39.0302 37.3786L38.8039 36.9131L38.5777 36.3475L38.408 35.7819L38.3345 35.4991L38.3514 35.2163H38.4646L38.8039 36.0647L39.0302 36.6869L39.4826 37.5918L40.0482 38.6099L40.6138 39.3452L41.1794 40.0239L42.0278 41.042L42.5934 41.6076L43.4418 42.3429L44.0074 42.7953L45.1386 43.4741L46.2698 43.9831L47.6838 44.5487L49.0978 44.9446L50.5118 45.1143L51.7068 45.2274H53.057L54.1882 45.1143L55.3194 44.8315L56.4506 44.5487L58.1474 43.9831L59.2786 43.4175L60.4098 42.6822L61.2582 42.0035L61.8238 41.4379L62.6722 40.5895L63.2943 39.7411L63.6903 39.1755L64.0862 38.6099L64.369 38.0443L64.9346 36.9131L65.2739 36.0647L65.5567 35.2163L65.783 34.0851L65.9526 32.9539L66.0092 32.3318L65.5002 32.7843L64.9346 33.1236L64.0862 33.5195L62.955 33.8023L60.6926 34.3114L58.4302 34.7073L57.0162 34.9335L55.1776 35.0466L52.7742 35.1598L51.0774 35.1032L49.0978 35.0466L47.401 34.9335L45.4214 34.6507L42.0278 33.972L40.0482 33.2367L38.3514 32.4449L37.7859 32.1055L37.5031 31.5399V30.9743L37.7859 30.4087L38.3514 29.8431L39.4826 29.2775L41.745 28.4291L43.7246 28.0898L45.987 27.8635L47.9666 27.6939L49.9462 27.5807Z" fill="#B96969" stroke="#B96969"/>
<mask id="path-33-inside-1_162_86" fill="white">
<path fill-rule="evenodd" clip-rule="evenodd" d="M43.3007 16.3433C42.7387 16.1339 42.1762 15.6085 41.8246 14.8964C41.2711 13.7754 41.45 12.6163 42.2241 12.3075C42.6891 12.122 43.2633 12.2856 43.7676 12.6889C44.2427 12.3282 44.7798 12.1857 45.2266 12.3559C46.0063 12.6529 46.216 13.7898 45.6949 14.8952C45.4002 15.5205 44.9347 16.0017 44.4449 16.2481C44.3789 16.2958 44.3067 16.3358 44.2284 16.367C44.0203 16.45 43.7904 16.4631 43.5547 16.4162C43.4811 16.4045 43.4092 16.3855 43.3395 16.359C43.3264 16.354 43.3135 16.3488 43.3007 16.3433Z"/>
</mask>
<path d="M43.3007 16.3433L43.6936 15.4237L43.6719 15.4145L43.6499 15.4063L43.3007 16.3433ZM41.8246 14.8964L40.9279 15.3391H40.9279L41.8246 14.8964ZM42.2241 12.3075L41.8536 11.3787H41.8536L42.2241 12.3075ZM43.7676 12.6889L43.143 13.4699L43.7515 13.9565L44.3721 13.4854L43.7676 12.6889ZM45.2266 12.3559L44.8706 13.2904L45.2266 12.3559ZM45.6949 14.8952L46.5995 15.3216V15.3216L45.6949 14.8952ZM44.4449 16.2481L43.9956 15.3547L43.9239 15.3908L43.8589 15.4378L44.4449 16.2481ZM44.2284 16.367L44.5989 17.2958L44.2284 16.367ZM43.5547 16.4162L43.7501 15.4354L43.7309 15.4316L43.7116 15.4286L43.5547 16.4162ZM43.3395 16.359L43.6954 15.4245L43.6954 15.4245L43.3395 16.359ZM43.6499 15.4063C43.371 15.3023 42.9828 14.9835 42.7213 14.4537L40.9279 15.3391C41.3695 16.2335 42.1064 16.9655 42.9516 17.2804L43.6499 15.4063ZM42.7213 14.4537C42.5188 14.0436 42.4792 13.6809 42.5148 13.4499C42.5321 13.3375 42.5635 13.277 42.5804 13.2524C42.5884 13.2408 42.5933 13.2369 42.5934 13.2368C42.5937 13.2366 42.5936 13.2367 42.5933 13.2369C42.593 13.2371 42.5933 13.2369 42.5946 13.2363L41.8536 11.3787C41.0461 11.7008 40.6475 12.4364 40.5382 13.1449C40.4293 13.8508 40.5769 14.6282 40.9279 15.3391L42.7213 14.4537ZM42.5946 13.2363C42.5966 13.2355 42.6054 13.2322 42.6255 13.2315C42.6466 13.2308 42.6818 13.233 42.7319 13.2458C42.8353 13.2724 42.9798 13.3394 43.143 13.4699L44.3921 11.9079C43.7437 11.3893 42.7887 11.0057 41.8536 11.3787L42.5946 13.2363ZM45.5825 11.4214C44.6941 11.083 43.7934 11.4139 43.163 11.8923L44.3721 13.4854C44.5192 13.3738 44.6478 13.318 44.7394 13.2961C44.8276 13.2751 44.865 13.2883 44.8706 13.2904L45.5825 11.4214ZM46.5995 15.3216C46.9337 14.6126 47.0609 13.8396 46.932 13.141C46.8023 12.4381 46.3836 11.7265 45.5825 11.4214L44.8706 13.2904C44.8734 13.2915 44.8801 13.2928 44.8949 13.313C44.9133 13.3381 44.9454 13.3966 44.9652 13.5038C45.0058 13.7242 44.9773 14.0724 44.7904 14.4688L46.5995 15.3216ZM44.8942 17.1415C45.609 16.782 46.2222 16.1219 46.5995 15.3216L44.7904 14.4688C44.5781 14.9191 44.2605 15.2215 43.9956 15.3547L44.8942 17.1415ZM43.8589 15.4378C43.8595 15.4374 43.8596 15.4375 43.8579 15.4382L44.5989 17.2958C44.7538 17.2341 44.8983 17.1543 45.0309 17.0584L43.8589 15.4378ZM43.8579 15.4382C43.8576 15.4383 43.8282 15.451 43.7501 15.4354L43.3593 17.3969C43.7526 17.4753 44.1831 17.4617 44.5989 17.2958L43.8579 15.4382ZM42.9835 17.2935C43.1195 17.3453 43.2583 17.3816 43.3978 17.4038L43.7116 15.4286C43.7039 15.4273 43.6988 15.4258 43.6954 15.4245L42.9835 17.2935ZM42.9079 17.2629C42.9329 17.2736 42.9581 17.2838 42.9835 17.2935L43.6954 15.4245C43.6947 15.4242 43.6941 15.4239 43.6936 15.4237L42.9079 17.2629Z" fill="#B96969" mask="url(#path-33-inside-1_162_86)"/>
<mask id="path-35-inside-2_162_86" fill="white">
<path fill-rule="evenodd" clip-rule="evenodd" d="M30.1041 25.2989C29.2909 24.9961 28.4769 24.2359 27.9682 23.2056C27.1675 21.584 27.4263 19.9073 28.5461 19.4606C29.2188 19.1922 30.0494 19.4289 30.7789 20.0122C31.4663 19.4905 32.2431 19.2844 32.8895 19.5306C34.0175 19.9602 34.3209 21.6048 33.567 23.2039C33.1406 24.1084 32.4673 24.8046 31.7587 25.161C31.6633 25.23 31.5588 25.2878 31.4455 25.333C31.1444 25.4531 30.8116 25.4721 30.4704 25.404C30.3642 25.3871 30.2603 25.3597 30.1596 25.3214C30.1409 25.3142 30.1223 25.3067 30.1041 25.2989Z"/>
</mask>
<path d="M30.1041 25.2989L30.4966 24.3792L30.475 24.37L30.453 24.3618L30.1041 25.2989ZM27.9682 23.2056L27.0715 23.6483H27.0715L27.9682 23.2056ZM28.5461 19.4606L28.1756 18.5317H28.1756L28.5461 19.4606ZM30.7789 20.0122L30.1543 20.7932L30.7628 21.2798L31.3835 20.8088L30.7789 20.0122ZM32.8895 19.5306L32.5335 20.4651L32.8895 19.5306ZM33.567 23.2039L34.4716 23.6303L33.567 23.2039ZM31.7587 25.161L31.3094 24.2676L31.2377 24.3037L31.1727 24.3507L31.7587 25.161ZM31.4455 25.333L31.075 24.4042H31.075L31.4455 25.333ZM30.4704 25.404L30.6661 24.4233L30.6469 24.4195L30.6277 24.4165L30.4704 25.404ZM30.1596 25.3214L29.8037 26.2559L29.8037 26.2559L30.1596 25.3214ZM30.453 24.3618C29.9231 24.1645 29.2836 23.6109 28.8649 22.7629L27.0715 23.6483C27.6703 24.861 28.6587 25.8278 29.7551 26.2361L30.453 24.3618ZM28.8649 22.7629C28.5388 22.1025 28.4573 21.4852 28.5253 21.045C28.5928 20.6073 28.7771 20.445 28.9166 20.3894L28.1756 18.5317C27.1952 18.9228 26.6903 19.8223 26.5487 20.74C26.4074 21.6552 26.5969 22.6871 27.0715 23.6483L28.8649 22.7629ZM28.9166 20.3894C29.1193 20.3085 29.569 20.3251 30.1543 20.7932L31.4034 19.2313C30.5298 18.5326 29.3184 18.0759 28.1756 18.5317L28.9166 20.3894ZM33.2454 18.5961C32.1575 18.1817 31.0169 18.5762 30.1743 19.2157L31.3835 20.8088C31.9156 20.4049 32.3288 20.3871 32.5335 20.4651L33.2454 18.5961ZM34.4716 23.6303C34.9222 22.6744 35.0841 21.6511 34.9174 20.7473C34.7499 19.8392 34.2207 18.9675 33.2454 18.5961L32.5335 20.4651C32.6863 20.5233 32.8728 20.6887 32.9505 21.1101C33.0291 21.5357 32.9657 22.1343 32.6625 22.7775L34.4716 23.6303ZM32.208 26.0544C33.1416 25.5849 33.9627 24.7098 34.4716 23.6303L32.6625 22.7775C32.3186 23.507 31.7931 24.0244 31.3094 24.2676L32.208 26.0544ZM31.1727 24.3507C31.1438 24.3716 31.1117 24.3895 31.075 24.4042L31.816 26.2618C32.0059 26.1861 32.1827 26.0885 32.3447 25.9713L31.1727 24.3507ZM31.075 24.4042C30.9817 24.4414 30.8496 24.4599 30.6661 24.4233L30.2748 26.3847C30.7736 26.4842 31.307 26.4649 31.816 26.2618L31.075 24.4042ZM29.8037 26.2559C29.9706 26.3194 30.1412 26.3642 30.3132 26.3916L30.6277 24.4165C30.5873 24.41 30.5501 24.4 30.5156 24.3869L29.8037 26.2559ZM29.7115 26.2187C29.742 26.2317 29.7727 26.2441 29.8037 26.2559L30.5156 24.3869C30.5091 24.3844 30.5027 24.3818 30.4966 24.3792L29.7115 26.2187Z" fill="#B96969" mask="url(#path-35-inside-2_162_86)"/>
<mask id="path-37-outside-3_162_86" maskUnits="userSpaceOnUse" x="-0.000110158" y="-0.000106148" width="92.0101" height="92.0101" fill="black">
<rect fill="white" x="-0.000110158" y="-0.000106148" width="92.0101" height="92.0101"/>
<path d="M77.1142 14.8888C77.5047 14.4983 78.1388 14.4975 78.5206 14.8965C85.9863 22.6997 90.405 32.9381 90.9482 43.7461C91.5082 54.8873 87.91 65.8394 80.8518 74.4777C73.7935 83.1161 63.7783 88.8249 52.7491 90.4967C41.7198 92.1686 30.4626 89.6842 21.1615 83.5256C11.8603 77.367 5.17809 67.9733 2.41117 57.1666C-0.35574 46.3599 0.989869 34.9107 6.18697 25.04C11.3841 15.1694 20.0622 7.58086 30.5378 3.74663C40.7 0.027093 51.8511 0.0978004 61.9497 3.92451C62.4662 4.12021 62.713 4.70427 62.5059 5.21625L62.1708 6.04454C61.9637 6.55651 61.3811 6.80246 60.8644 6.60755C51.431 3.04937 41.021 2.99085 31.5323 6.46384C21.7303 10.0515 13.6102 17.1521 8.74726 26.3881C3.88434 35.6241 2.62525 46.3371 5.21426 56.4489C7.80326 66.5607 14.0558 75.3505 22.7589 81.113C31.462 86.8756 41.9953 89.2002 52.3154 87.6359C62.6355 86.0716 72.0067 80.7298 78.6111 72.6469C85.2155 64.564 88.5823 54.3162 88.0584 43.8913C87.5512 33.7998 83.433 24.2388 76.4742 16.9433C76.093 16.5436 76.092 15.9113 76.4825 15.5207L77.1142 14.8888Z"/>
</mask>
<path d="M77.1142 14.8888C77.5047 14.4983 78.1388 14.4975 78.5206 14.8965C85.9863 22.6997 90.405 32.9381 90.9482 43.7461C91.5082 54.8873 87.91 65.8394 80.8518 74.4777C73.7935 83.1161 63.7783 88.8249 52.7491 90.4967C41.7198 92.1686 30.4626 89.6842 21.1615 83.5256C11.8603 77.367 5.17809 67.9733 2.41117 57.1666C-0.35574 46.3599 0.989869 34.9107 6.18697 25.04C11.3841 15.1694 20.0622 7.58086 30.5378 3.74663C40.7 0.027093 51.8511 0.0978004 61.9497 3.92451C62.4662 4.12021 62.713 4.70427 62.5059 5.21625L62.1708 6.04454C61.9637 6.55651 61.3811 6.80246 60.8644 6.60755C51.431 3.04937 41.021 2.99085 31.5323 6.46384C21.7303 10.0515 13.6102 17.1521 8.74726 26.3881C3.88434 35.6241 2.62525 46.3371 5.21426 56.4489C7.80326 66.5607 14.0558 75.3505 22.7589 81.113C31.462 86.8756 41.9953 89.2002 52.3154 87.6359C62.6355 86.0716 72.0067 80.7298 78.6111 72.6469C85.2155 64.564 88.5823 54.3162 88.0584 43.8913C87.5512 33.7998 83.433 24.2388 76.4742 16.9433C76.093 16.5436 76.092 15.9113 76.4825 15.5207L77.1142 14.8888Z" fill="#B96969"/>
<path d="M77.1142 14.8888C77.5047 14.4983 78.1388 14.4975 78.5206 14.8965C85.9863 22.6997 90.405 32.9381 90.9482 43.7461C91.5082 54.8873 87.91 65.8394 80.8518 74.4777C73.7935 83.1161 63.7783 88.8249 52.7491 90.4967C41.7198 92.1686 30.4626 89.6842 21.1615 83.5256C11.8603 77.367 5.17809 67.9733 2.41117 57.1666C-0.35574 46.3599 0.989869 34.9107 6.18697 25.04C11.3841 15.1694 20.0622 7.58086 30.5378 3.74663C40.7 0.027093 51.8511 0.0978004 61.9497 3.92451C62.4662 4.12021 62.713 4.70427 62.5059 5.21625L62.1708 6.04454C61.9637 6.55651 61.3811 6.80246 60.8644 6.60755C51.431 3.04937 41.021 2.99085 31.5323 6.46384C21.7303 10.0515 13.6102 17.1521 8.74726 26.3881C3.88434 35.6241 2.62525 46.3371 5.21426 56.4489C7.80326 66.5607 14.0558 75.3505 22.7589 81.113C31.462 86.8756 41.9953 89.2002 52.3154 87.6359C62.6355 86.0716 72.0067 80.7298 78.6111 72.6469C85.2155 64.564 88.5823 54.3162 88.0584 43.8913C87.5512 33.7998 83.433 24.2388 76.4742 16.9433C76.093 16.5436 76.092 15.9113 76.4825 15.5207L77.1142 14.8888Z" stroke="#B96969" stroke-width="0.4" mask="url(#path-37-outside-3_162_86)"/>
<defs>
<filter id="filter0_d_162_86" x="65.5039" y="8.06219" width="9.76544" height="9.57962" filterUnits="userSpaceOnUse" color-interpolation-filters="sRGB">
<feFlood flood-opacity="0" result="BackgroundImageFix"/>
<feColorMatrix in="SourceAlpha" type="matrix" values="0 0 0 0 0 0 0 0 0 0 0 0 0 0 0 0 0 0 127 0" result="hardAlpha"/>
<feOffset dy="4"/>
<feGaussianBlur stdDeviation="2"/>
<feComposite in2="hardAlpha" operator="out"/>
<feColorMatrix type="matrix" values="0 0 0 0 0 0 0 0 0 0 0 0 0 0 0 0 0 0 0.25 0"/>
<feBlend mode="normal" in2="BackgroundImageFix" result="effect1_dropShadow_162_86"/>
<feBlend mode="normal" in="SourceGraphic" in2="effect1_dropShadow_162_86" result="shape"/>
</filter>
<filter id="filter1_d_162_86" x="57.5369" y="8.87082" width="17.604" height="21.7869" filterUnits="userSpaceOnUse" color-interpolation-filters="sRGB">
<feFlood flood-opacity="0" result="BackgroundImageFix"/>
<feColorMatrix in="SourceAlpha" type="matrix" values="0 0 0 0 0 0 0 0 0 0 0 0 0 0 0 0 0 0 127 0" result="hardAlpha"/>
<feOffset dy="4"/>
<feGaussianBlur stdDeviation="2"/>
<feComposite in2="hardAlpha" operator="out"/>
<feColorMatrix type="matrix" values="0 0 0 0 0 0 0 0 0 0 0 0 0 0 0 0 0 0 0.25 0"/>
<feBlend mode="normal" in2="BackgroundImageFix" result="effect1_dropShadow_162_86"/>
<feBlend mode="normal" in="SourceGraphic" in2="effect1_dropShadow_162_86" result="shape"/>
</filter>
</defs>
</svg>
