<svg width="114" height="67" viewBox="0 0 114 67" fill="none" xmlns="http://www.w3.org/2000/svg">
<g filter="url(#filter0_i_171_5)">
<mask id="mask0_171_5" style="mask-type:alpha" maskUnits="userSpaceOnUse" x="0" y="0" width="114" height="67">
<path fill-rule="evenodd" clip-rule="evenodd" d="M0 0L44.1158 66.982L63.8625 37H82.9407V27.05H82.2407C82.2407 30.85 81.374 33.3333 79.6407 34.5C78.7407 35.1 77.7407 35.5 76.6407 35.7C75.5407 35.9 74.0907 36 72.2907 36H69.2407L83.2407 14.6V14H79.0108L88.2315 0H0ZM79.0108 14H62.1907V23.25H62.9907C62.9907 17.75 65.9407 15 71.8407 15H74.7907L60.6407 36.25V37H63.8625L79.0108 14ZM37.5 22.9V10C40.7667 10 42.9834 10.5333 44.15 11.6C45.3167 12.6667 45.9 14.3333 45.9 16.6C45.9 18.8667 45.3334 20.4833 44.2 21.45C43.0667 22.4167 40.8334 22.9 37.5 22.9ZM54.9501 37.5H57.15V36.5C56.2167 36.5 55.4 36.0167 54.7 35.05C54.0334 34.05 53.3667 32.3833 52.7 30.05C51.4 25.65 49.0834 23.45 45.75 23.45V23.1C47.9834 23.1 49.8167 22.4833 51.25 21.25C52.6834 20.0167 53.4 18.4167 53.4 16.45C53.4 11.4833 49.15 9.00001 40.65 9.00001H27.5V10H30V36H27.5V37H40V36H37.5V23.9H39.7C41.3334 23.9 42.4167 24.8 42.95 26.6C43.1834 27.4 43.4 28.2833 43.6 29.25C44.0667 31.55 44.95 33.4 46.25 34.8C47.8834 36.6 50.7834 37.5 54.9501 37.5ZM90.7383 37H91.7383C91.7383 35.6667 92.355 35 93.5883 35C94.0217 35 94.6883 35.2333 95.5883 35.7C98.2217 37.0667 100.872 37.75 103.538 37.75C106.505 37.75 108.855 37.05 110.588 35.65C112.355 34.2167 113.372 32.15 113.638 29.45C113.772 28.0167 113.605 26.7667 113.138 25.7C112.905 25.1667 112.672 24.7 112.438 24.3C112.205 23.8667 111.838 23.45 111.338 23.05L110.088 22.05C109.788 21.7833 109.322 21.4833 108.688 21.15C108.055 20.8167 107.572 20.5833 107.238 20.45C106.905 20.2833 105.822 19.7833 103.988 18.95C103.622 18.7833 102.955 18.5 101.988 18.1C101.055 17.7 100.372 17.3833 99.9383 17.15C99.505 16.9167 98.9883 16.6167 98.3883 16.25C97.8217 15.85 97.4217 15.4167 97.1883 14.95C96.955 14.4833 96.8383 13.8167 96.8383 12.95C96.8383 12.0833 97.1883 11.3 97.8883 10.6C98.5883 9.86667 99.555 9.50001 100.788 9.50001C103.555 9.50001 105.822 10.2667 107.588 11.8C109.355 13.3 110.238 15.25 110.238 17.65H111.238V8.5H110.238C110.238 9.66667 109.905 10.25 109.238 10.25C109.005 10.25 108.005 9.96667 106.238 9.40001C104.505 8.8 102.538 8.5 100.338 8.5C98.1717 8.5 96.2217 9.23334 94.4883 10.7C92.755 12.1333 91.755 14.1667 91.4883 16.8C91.255 19.4333 92.1717 21.55 94.2383 23.15C95.2717 23.95 97.055 24.9333 99.5883 26.1C102.122 27.2333 103.905 28.0667 104.938 28.6C106.838 29.6333 107.788 30.8833 107.788 32.35C107.788 33.65 107.372 34.7 106.538 35.5C105.738 36.2667 104.672 36.65 103.338 36.65C100.105 36.65 97.355 35.55 95.0883 33.35C92.855 31.15 91.7383 28.4833 91.7383 25.35H90.7383V37Z" fill="#D9D9D9"/>
</mask>
<g mask="url(#mask0_171_5)">
<path d="M102.342 47.4834L106.376 41.3589H114.443L118.477 47.4834L114.443 53.608H106.376L102.342 47.4834Z" fill="#A45050"/>
<path d="M102.342 33.7436L106.376 27.619H114.443L118.477 33.7436L114.443 39.8681H106.376L102.342 33.7436Z" fill="#A45050"/>
<path d="M102.342 20.0037L106.376 13.8792L114.443 13.8792L118.477 20.0037L114.443 26.1282H106.376L102.342 20.0037Z" fill="#A45050"/>
<path d="M102.342 6.26375L106.376 0.139222L114.443 0.139222L118.477 6.26375L114.443 12.3883L106.376 12.3883L102.342 6.26375Z" fill="#A45050"/>
<path d="M102.342 61.2233L106.376 55.0988H114.443L118.477 61.2233L114.443 67.3478H106.376L102.342 61.2233Z" fill="#A45050"/>
<path d="M8.75903 -1.01029L12.7928 -7.13483L20.8603 -7.13483L24.894 -1.01029L20.8603 5.11424L12.7928 5.11424L8.75903 -1.01029Z" fill="#A45050"/>
<path d="M-4.60999 47.0793L-0.576236 40.9548H7.49126L11.525 47.0793L7.49126 53.2038H-0.576236L-4.60999 47.0793Z" fill="#A45050"/>
<path d="M8.75903 40.2094L12.7928 34.0848H20.8603L24.894 40.2094L20.8603 46.3339H12.7928L8.75903 40.2094Z" fill="#A45050"/>
<path d="M8.75903 53.9493L12.7928 47.8248H20.8603L24.894 53.9493L20.8603 60.0738H12.7928L8.75903 53.9493Z" fill="#A45050"/>
<path d="M48.866 5.8597L52.8997 -0.264831L60.9672 -0.264831L65.001 5.8597L60.9672 11.9842L52.8997 11.9842L48.866 5.8597Z" fill="#A45050"/>
<path d="M22.1279 47.0793L26.1617 40.9548H34.2292L38.2629 47.0793L34.2292 53.2038H26.1617L22.1279 47.0793Z" fill="#A45050"/>
<path d="M62.235 54.3534L66.2687 48.2289H74.3362L78.37 54.3534L74.3362 60.4779H66.2687L62.235 54.3534Z" fill="#A45050"/>
<path d="M-4.60999 33.3394L-0.576236 27.2149H7.49126L11.525 33.3394L7.49126 39.464H-0.576236L-4.60999 33.3394Z" fill="#A45050"/>
<path d="M-4.60999 19.5996L-0.576236 13.475L7.49126 13.475L11.525 19.5996L7.49126 25.7241H-0.576236L-4.60999 19.5996Z" fill="#A45050"/>
<path d="M-4.60999 5.8597L-0.576236 -0.264831L7.49126 -0.264831L11.525 5.8597L7.49126 11.9842L-0.576236 11.9842L-4.60999 5.8597Z" fill="#A45050"/>
<path d="M22.1279 33.3394L26.1617 27.2149H34.2292L38.2629 33.3394L34.2292 39.464H26.1617L22.1279 33.3394Z" fill="#A45050"/>
<path d="M62.235 40.2094L66.2687 34.0848H74.3362L78.37 40.2094L74.3362 46.3339H66.2687L62.235 40.2094Z" fill="#A45050"/>
<path d="M48.866 47.0793L52.8997 40.9548H60.9672L65.001 47.0793L60.9672 53.2038H52.8997L48.866 47.0793Z" fill="#A45050"/>
<path d="M22.1279 5.8597L26.1617 -0.264831L34.2292 -0.264831L38.2629 5.8597L34.2292 11.9842L26.1617 11.9842L22.1279 5.8597Z" fill="#A45050"/>
<path d="M62.235 12.7296L66.2687 6.60504L74.3362 6.60504L78.37 12.7296L74.3362 18.8541H66.2687L62.235 12.7296Z" fill="#A45050"/>
<path d="M35.4969 53.9493L39.5307 47.8248H47.5982L51.6319 53.9493L47.5982 60.0738H39.5307L35.4969 53.9493Z" fill="#A45050"/>
<path d="M75.604 61.2233L79.6378 55.0988H87.7053L91.739 61.2233L87.7053 67.3478H79.6378L75.604 61.2233Z" fill="#A45050"/>
<path d="M22.1279 19.5996L26.1617 13.475L34.2292 13.475L38.2629 19.5996L34.2292 25.7241H26.1617L22.1279 19.5996Z" fill="#A45050"/>
<path d="M62.235 26.4694L66.2687 20.3449H74.3362L78.37 26.4694L74.3362 32.594H66.2687L62.235 26.4694Z" fill="#A45050"/>
<path d="M35.4969 67.6892L39.5307 61.5646H47.5982L51.6319 67.6892L47.5982 73.8137H39.5307L35.4969 67.6892Z" fill="#A45050"/>
<path d="M8.75903 12.7296L12.7928 6.60504L20.8603 6.60504L24.894 12.7296L20.8603 18.8541H12.7928L8.75903 12.7296Z" fill="#A45050"/>
<path d="M-4.60999 60.8192L-0.576236 54.6947H7.49126L11.525 60.8192L7.49126 66.9438H-0.576236L-4.60999 60.8192Z" fill="#A45050"/>
<path d="M48.866 19.5996L52.8997 13.475L60.9672 13.475L65.001 19.5996L60.9672 25.7241H52.8997L48.866 19.5996Z" fill="#A45050"/>
<path d="M22.1279 60.8192L26.1617 54.6947H34.2292L38.2629 60.8192L34.2292 66.9438H26.1617L22.1279 60.8192Z" fill="#A45050"/>
<path d="M8.75903 67.2851L12.7928 61.1605H20.8603L24.894 67.2851L20.8603 73.4096H12.7928L8.75903 67.2851Z" fill="#A45050"/>
<path d="M62.235 68.0933L66.2687 61.9688H74.3362L78.37 68.0933L74.3362 74.2178H66.2687L62.235 68.0933Z" fill="#A45050"/>
<path d="M62.235 -1.01029L66.2687 -7.13483L74.3362 -7.13483L78.37 -1.01029L74.3362 5.11424L66.2687 5.11424L62.235 -1.01029Z" fill="#A45050"/>
<path d="M35.4969 40.2094L39.5307 34.0848H47.5982L51.6319 40.2094L47.5982 46.3339H39.5307L35.4969 40.2094Z" fill="#A45050"/>
<path d="M75.604 47.4834L79.6378 41.3589H87.7053L91.739 47.4834L87.7053 53.608H79.6378L75.604 47.4834Z" fill="#A45050"/>
<path d="M8.75903 26.4694L12.7928 20.3449H20.8603L24.894 26.4694L20.8603 32.594H12.7928L8.75903 26.4694Z" fill="#A45050"/>
<path d="M35.4969 26.4694L39.5307 20.3449H47.5982L51.6319 26.4694L47.5982 32.594H39.5307L35.4969 26.4694Z" fill="#A45050"/>
<path d="M75.604 33.7436L79.6378 27.619H87.7053L91.739 33.7436L87.7053 39.8681H79.6378L75.604 33.7436Z" fill="#A45050"/>
<path d="M75.604 5.8597L79.6378 -0.264831L87.7053 -0.264831L91.739 5.8597L87.7053 11.9842L79.6378 11.9842L75.604 5.8597Z" fill="#A45050"/>
<path d="M48.866 33.3394L52.8997 27.2149H60.9672L65.001 33.3394L60.9672 39.464H52.8997L48.866 33.3394Z" fill="#A45050"/>
<path d="M88.973 40.6135L93.0068 34.489H101.074L105.108 40.6135L101.074 46.738H93.0068L88.973 40.6135Z" fill="#A45050"/>
<path d="M88.973 26.8736L93.0068 20.749H101.074L105.108 26.8736L101.074 32.9981H93.0068L88.973 26.8736Z" fill="#A45050"/>
<path d="M88.973 13.1337L93.0068 7.00916L101.074 7.00916L105.108 13.1337L101.074 19.2582H93.0068L88.973 13.1337Z" fill="#A45050"/>
<path d="M88.973 -0.606181L93.0068 -6.73071L101.074 -6.73071L105.108 -0.606181L101.074 5.51835L93.0068 5.51835L88.973 -0.606181Z" fill="#A45050"/>
<path d="M88.973 54.3534L93.0068 48.2289H101.074L105.108 54.3534L101.074 60.4779H93.0068L88.973 54.3534Z" fill="#A45050"/>
<path d="M35.4969 -1.01029L39.5307 -7.13483L47.5982 -7.13483L51.6319 -1.01029L47.5982 5.11424L39.5307 5.11424L35.4969 -1.01029Z" fill="#A45050"/>
<path d="M35.4969 12.7296L39.5307 6.60504L47.5982 6.60504L51.6319 12.7296L47.5982 18.8541H39.5307L35.4969 12.7296Z" fill="#A45050"/>
<path d="M75.604 19.5996L79.6378 13.475L87.7053 13.475L91.739 19.5996L87.7053 25.7241H79.6378L75.604 19.5996Z" fill="#A45050"/>
<path d="M48.866 60.8192L52.8997 54.6947H60.9672L65.001 60.8192L60.9672 66.9438H52.8997L48.866 60.8192Z" fill="#A45050"/>
<path d="M88.973 68.0933L93.0068 61.9688H101.074L105.108 68.0933L101.074 74.2178H93.0068L88.973 68.0933Z" fill="#A45050"/>
</g>
</g>
<defs>
<filter id="filter0_i_171_5" x="0" y="0" width="116.683" height="69.9819" filterUnits="userSpaceOnUse" color-interpolation-filters="sRGB">
<feFlood flood-opacity="0" result="BackgroundImageFix"/>
<feBlend mode="normal" in="SourceGraphic" in2="BackgroundImageFix" result="shape"/>
<feColorMatrix in="SourceAlpha" type="matrix" values="0 0 0 0 0 0 0 0 0 0 0 0 0 0 0 0 0 0 127 0" result="hardAlpha"/>
<feOffset dx="3" dy="3"/>
<feGaussianBlur stdDeviation="1.5"/>
<feComposite in2="hardAlpha" operator="arithmetic" k2="-1" k3="1"/>
<feColorMatrix type="matrix" values="0 0 0 0 0 0 0 0 0 0 0 0 0 0 0 0 0 0 0.15 0"/>
<feBlend mode="normal" in2="shape" result="effect1_innerShadow_171_5"/>
</filter>
</defs>
</svg>
