<svg width="40" height="40" viewBox="0 0 40 40" fill="none" xmlns="http://www.w3.org/2000/svg">
<path d="M2.33333 40C1.66667 40 1.11111 39.7778 0.666667 39.3333C0.222222 38.8889 0 38.3333 0 37.6667V28.6667C0 28.1481 0.166666 27.6941 0.5 27.3044C0.833333 26.9163 1.25926 26.6667 1.77778 26.5556L9.44444 25C9.96296 24.9259 10.4911 24.9719 11.0289 25.1378C11.5652 25.3052 12 25.5556 12.3333 25.8889L17.5556 31.1111C20.3704 29.4074 22.9444 27.3889 25.2778 25.0556C27.6111 22.7222 29.5556 20.2222 31.1111 17.5556L25.7778 12.1111C25.4444 11.7778 25.2311 11.3978 25.1378 10.9711C25.0459 10.5459 25.037 10.0741 25.1111 9.55556L26.5556 1.77778C26.6296 1.25926 26.8704 0.833333 27.2778 0.5C27.6852 0.166666 28.1481 0 28.6667 0H37.6667C38.3333 0 38.8889 0.222222 39.3333 0.666667C39.7778 1.11111 40 1.66667 40 2.33333C40 7.11111 38.9348 11.7681 36.8044 16.3044C34.6756 20.8422 31.8607 24.8607 28.36 28.36C24.8607 31.8607 20.843 34.6756 16.3067 36.8044C11.7689 38.9348 7.11111 40 2.33333 40Z" fill="#F4D7CA"/>
</svg>
