<svg width="38" height="40" viewBox="0 0 38 40" fill="none" xmlns="http://www.w3.org/2000/svg">
<path d="M32.3535 6.48353C30.6296 4.70883 28.5762 3.30173 26.3131 2.34428C24.05 1.38684 21.6224 0.898214 19.1721 0.906913C8.90528 0.906913 0.537637 9.43472 0.537637 19.8981C0.537637 23.2517 1.40261 26.5095 3.01972 29.384L0.387207 39.2341L10.2591 36.5896C12.9857 38.1035 16.0507 38.9084 19.1721 38.9084C29.4389 38.9084 37.8066 30.3806 37.8066 19.9172C37.8066 14.8389 35.8698 10.0671 32.3535 6.48353ZM19.1721 35.6889C16.3892 35.6889 13.6626 34.9223 11.2745 33.4851L10.7104 33.1401L4.84368 34.7115L6.40439 28.8858L6.02832 28.2917C4.48217 25.7755 3.66119 22.867 3.65905 19.8981C3.65905 11.1978 10.6164 4.10724 19.1533 4.10724C23.2901 4.10724 27.1825 5.75531 30.097 8.74483C31.5402 10.2089 32.6839 11.9503 33.4618 13.8681C34.2397 15.7859 34.6363 17.842 34.6287 19.9172C34.6663 28.6175 27.709 35.6889 19.1721 35.6889ZM27.6714 23.8841C27.2013 23.6541 24.9072 22.5043 24.4935 22.3318C24.0611 22.1785 23.7602 22.1019 23.4405 22.5618C23.1209 23.0409 22.2371 24.114 21.9738 24.4207C21.7106 24.7465 21.4285 24.7848 20.9584 24.5356C20.4884 24.3057 18.9841 23.7883 17.2165 22.1785C15.825 20.9137 14.9037 19.3615 14.6216 18.8824C14.3584 18.4033 14.584 18.1542 14.8284 17.905C15.0353 17.6942 15.2985 17.3493 15.5242 17.081C15.7498 16.8127 15.8438 16.6019 15.9943 16.2953C16.1447 15.9695 16.0695 15.7012 15.9567 15.4713C15.8438 15.2413 14.9037 12.9033 14.5276 11.9452C14.1515 11.0253 13.7566 11.1403 13.4746 11.1211H12.572C12.2523 11.1211 11.7634 11.2361 11.331 11.7152C10.9173 12.1943 9.71384 13.3441 9.71384 15.6821C9.71384 18.02 11.3874 20.2813 11.613 20.5879C11.8387 20.9137 14.9037 25.7046 19.567 27.7551C20.6764 28.2534 21.5414 28.5408 22.2183 28.7516C23.3277 29.1158 24.3431 29.0583 25.1517 28.9433C26.0543 28.8091 27.9158 27.7935 28.2919 26.682C28.6868 25.5705 28.6868 24.6315 28.5551 24.4207C28.4235 24.2099 28.1415 24.114 27.6714 23.8841Z" fill="#B96969"/>
</svg>
