<svg width="42" height="42" viewBox="0 0 42 42" fill="none" xmlns="http://www.w3.org/2000/svg">
<path d="M2.5973 41.8334C1.90286 41.8334 1.32416 41.6019 0.861192 41.1389C0.398229 40.6759 0.166748 40.0972 0.166748 39.4028V30.0278C0.166748 29.4877 0.340359 29.0147 0.687581 28.6088C1.0348 28.2045 1.47848 27.9445 2.0186 27.8287L10.0047 26.2084C10.5448 26.1312 11.095 26.179 11.6552 26.3519C12.2138 26.5263 12.6667 26.7871 13.014 27.1343L18.4538 32.5741C21.3859 30.7994 24.0672 28.6968 26.4978 26.2662C28.9283 23.8357 30.9538 21.2315 32.5742 18.4537L27.0186 12.7824C26.6714 12.4352 26.4492 12.0394 26.3519 11.5949C26.2563 11.152 26.247 10.6605 26.3242 10.1204L27.8288 2.01854C27.9059 1.47842 28.1567 1.03474 28.5811 0.68752C29.0055 0.340298 29.4877 0.166687 30.0279 0.166687H39.4029C40.0973 0.166687 40.676 0.398168 41.139 0.861131C41.6019 1.32409 41.8334 1.9028 41.8334 2.59724C41.8334 7.5741 40.7238 12.4252 38.5047 17.1505C36.2871 21.8773 33.355 26.0633 29.7084 29.7084C26.0634 33.355 21.8782 36.2871 17.1529 38.5047C12.426 40.7238 7.57416 41.8334 2.5973 41.8334Z" fill="#F4D7CA"/>
</svg>
