<svg width="40" height="42" viewBox="0 0 40 42" fill="none" xmlns="http://www.w3.org/2000/svg">
<path d="M19.5199 0C16.3563 0 8.53063 0.334661 4.36801 4.3506C1.37093 7.19522 0.205396 11.5458 0.0388914 16.7331C-0.294118 24.9323 1.53743 30.1195 4.53452 32.7968C5.20053 33.2988 6.86558 34.6374 10.0292 35.6414V39.8247C10.0292 39.8247 10.0292 41.498 11.0282 41.8327C11.1947 41.8327 11.3612 42 11.5277 42C12.5267 42 13.3593 40.8287 14.5248 39.6574C15.5238 38.4861 16.3563 37.6494 16.8559 36.8127H20.519C23.6825 36.8127 31.5083 36.4781 35.6709 32.4622C38.668 29.4502 39.8335 25.0996 39.8335 19.5777C40 18.741 40 17.7371 40 16.7331C39.8335 10.5418 38.0019 6.35857 35.5044 4.01594C34.5053 3.17928 30.1762 0 20.852 0H19.5199ZM19.1869 3.17928H20.6855C29.5102 3.17928 32.8403 6.0239 33.1733 6.35857C35.1714 8.03187 36.3369 11.7131 36.5034 16.5657V17.2351C36.6699 18.239 36.6699 19.0757 36.6699 19.5777C36.5034 24.5976 35.5044 27.9442 33.5063 30.1195C30.0097 33.2988 22.6835 33.4661 20.6855 33.4661H17.5219L14.8578 36.4781L13.1928 38.3187L12.8597 38.8207C12.5267 39.1554 12.0272 39.8247 11.6942 39.992V32.4622C8.36412 31.6255 7.03209 30.4542 6.69908 30.1195C4.36801 28.1116 3.03597 23.259 3.36898 16.7331V15.0598C3.70199 11.0438 4.70102 8.36653 6.36607 6.5259C9.86266 3.34661 17.1889 3.17928 19.1869 3.17928ZM19.0204 6.86056C18.1879 6.86056 18.1879 8.03187 19.0204 8.03187C25.1811 8.03187 30.5092 12.2151 30.5092 20.0797C30.5092 20.9163 31.6748 20.9163 31.6748 20.0797C31.6748 11.5458 26.0136 6.69323 19.0204 6.86056ZM12.4218 8.40837C12.0446 8.36293 11.6646 8.46741 11.3629 8.69952C9.69782 9.53618 8.03111 11.2128 8.53063 13.0535C8.53063 13.0535 8.86364 14.5578 10.6952 17.7371C11.6942 19.243 12.5267 20.5817 13.3593 21.5857C14.1918 22.757 15.5238 24.0956 16.8559 25.0996C19.5199 27.2749 23.6825 29.4502 25.5141 29.9522C27.1791 30.4542 29.0107 28.7809 29.8432 27.1076C30.1762 26.4382 30.0097 25.6016 29.3437 25.0996C28.3447 24.0956 26.6796 22.9243 25.5141 22.255C24.6816 21.753 23.6825 22.0876 23.3495 22.5896L22.517 23.5936C22.184 24.0956 21.3515 24.0956 21.3515 24.0956C15.8568 22.5896 14.3583 16.9004 14.3583 16.9004C14.3583 16.9004 14.3583 16.2311 14.8578 15.7291L15.8568 14.8924C16.3563 14.5578 16.6894 13.5538 16.1898 12.7171C15.8568 12.2151 15.3573 11.2112 14.8578 10.7092C14.3583 10.0398 13.3593 8.86853 13.3593 8.86853C13.1066 8.61431 12.7767 8.45232 12.4218 8.40837ZM20.186 10.2072C19.3534 10.0398 19.1869 11.3785 20.0194 11.3785C24.6816 11.7131 27.3456 14.8924 27.1791 18.9084C27.0126 19.745 28.3447 19.745 28.3447 18.9084C28.5112 14.2231 25.5141 10.3745 20.186 10.2072ZM20.6855 13.3865C19.8529 13.2191 19.8529 14.5578 20.6855 14.5578C22.6835 14.5578 23.6825 15.7291 23.6825 17.7371C23.8491 18.5737 25.0146 18.5737 25.0146 17.7371C24.8481 15.0598 23.3495 13.3865 20.6855 13.3865Z" fill="#B96969"/>
</svg>
